<?xml version="1.0" encoding="UTF-8"?>
<svg version="1.1" xmlns="http://www.w3.org/2000/svg" width="73" height="72">
<path d="M0 0 C8.66013931 4.07139017 16.06681362 10.33839023 19.7578125 19.2890625 C20.29676721 20.83855728 20.80065314 22.40099544 21.2578125 23.9765625 C21.44730469 24.59660156 21.63679688 25.21664063 21.83203125 25.85546875 C24.16557921 37.48039114 21.49931468 46.88805755 15.5078125 56.7265625 C9.67867847 64.94825155 2.02162675 68.86225722 -7.7421875 70.9765625 C-18.22289355 72.20222979 -26.49581788 69.71719542 -35.7421875 64.9765625 C-35.7421875 64.3165625 -35.7421875 63.6565625 -35.7421875 62.9765625 C-36.4021875 62.9765625 -37.0621875 62.9765625 -37.7421875 62.9765625 C-37.7421875 62.3165625 -37.7421875 61.6565625 -37.7421875 60.9765625 C-38.63744141 60.59951172 -38.63744141 60.59951172 -39.55078125 60.21484375 C-44.53559355 57.39811381 -47.07783265 52.02396089 -48.79296875 46.73828125 C-51.40075257 36.02288516 -52.06499761 25.17057241 -46.16015625 15.34375 C-34.82171042 0.37403721 -18.11556379 -4.95436087 0 0 Z " fill="#8D4A0E" transform="translate(50.7421875,1.0234375)"/>
<path d="M0 0 C8.66013931 4.07139017 16.06681362 10.33839023 19.7578125 19.2890625 C20.29676721 20.83855728 20.80065314 22.40099544 21.2578125 23.9765625 C21.44730469 24.59660156 21.63679688 25.21664063 21.83203125 25.85546875 C24.16557921 37.48039114 21.49931468 46.88805755 15.5078125 56.7265625 C9.67867847 64.94825155 2.02162675 68.86225722 -7.7421875 70.9765625 C-18.22289355 72.20222979 -26.49581788 69.71719542 -35.7421875 64.9765625 C-34.7421875 62.9765625 -34.7421875 62.9765625 -32.7421875 60.9765625 C-32.4121875 59.9865625 -32.0821875 58.9965625 -31.7421875 57.9765625 C-28.27277204 58.43478718 -25.06823701 58.86787933 -21.7421875 59.9765625 C-11.05262652 60.87969715 -3.76450936 59.38650742 4.6328125 52.7265625 C10.19130827 47.44488425 11.33158347 42.63900375 11.65600586 35.16137695 C11.80455208 27.1408036 11.14913732 20.42942027 5.71484375 14.2109375 C-1.66737124 7.25104603 -9.33126009 6.42131494 -19.1640625 6.6171875 C-24.52515498 7.15563784 -28.49462641 8.64555236 -32.3203125 12.61328125 C-33.7421875 13.9765625 -33.7421875 13.9765625 -35.7421875 13.9765625 C-36.0309375 14.56308594 -36.3196875 15.14960938 -36.6171875 15.75390625 C-37.29590025 17.09483526 -37.99778775 18.42486138 -38.7421875 19.73046875 C-41.80540275 25.2705807 -42.8713186 30.74297462 -43.7421875 36.9765625 C-45.3921875 36.9765625 -47.0421875 36.9765625 -48.7421875 36.9765625 C-50.12207269 27.00148882 -49.71787206 20.95078059 -43.8671875 12.7265625 C-33.07905562 -0.80476183 -16.36683307 -4.47610675 0 0 Z " fill="#63462C" transform="translate(50.7421875,1.0234375)"/>
<path d="M0 0 C3.35386761 -0.1171893 6.70720149 -0.18757584 10.0625 -0.25 C11.00544922 -0.28351562 11.94839844 -0.31703125 12.91992188 -0.3515625 C20.10701724 -0.45173108 24.42821386 0.61661577 29.77734375 5.68359375 C33.80617176 11.77431354 33.98966288 17.87261139 33 25 C31.53482878 29.35088916 29.07655531 32.78701283 25 35 C19.57546409 36.87005547 14.83799235 37.28107487 9.125 37.1875 C8.35414062 37.18685547 7.58328125 37.18621094 6.7890625 37.18554688 C1.1407983 37.1407983 1.1407983 37.1407983 0 36 C-0.08855161 33.3337397 -0.11524673 30.69352886 -0.09765625 28.02734375 C-0.0962413 27.22970108 -0.09482635 26.43205841 -0.09336853 25.61024475 C-0.08775316 23.05262565 -0.07519812 20.49509282 -0.0625 17.9375 C-0.05748698 16.20768355 -0.05292373 14.47786574 -0.04882812 12.74804688 C-0.03777875 8.49866447 -0.02050386 4.24934688 0 0 Z " fill="#55290E" transform="translate(22,17)"/>
<path d="M0 0 C3.56995628 2.99563059 7.05966924 5.99264002 8.76171875 10.41796875 C8.57421875 13.66796875 8.57421875 13.66796875 7.76171875 16.41796875 C6.77171875 16.91296875 6.77171875 16.91296875 5.76171875 17.41796875 C5.41740524 19.44853559 5.1615429 21.49439072 4.94921875 23.54296875 C3.97564079 30.53433176 2.25709256 34.25148131 -3.0234375 39.03515625 C-6.58065573 41.25606499 -10.36085139 41.30643196 -14.4609375 41.79296875 C-17.52351021 42.4821553 -18.13199799 43.25902841 -20.23828125 45.41796875 C-23.38775515 45.84137868 -26.23246137 45.42901726 -29.23828125 44.41796875 C-31.55078125 41.41796875 -31.55078125 41.41796875 -33.23828125 38.41796875 C-33.89828125 38.27359375 -34.55828125 38.12921875 -35.23828125 37.98046875 C-37.23828125 37.41796875 -37.23828125 37.41796875 -39.42578125 34.10546875 C-42.64769587 28.18792834 -43.00310516 22.0464426 -42.23828125 15.41796875 C-39.83281177 7.97503628 -35.10664247 1.14945386 -28.19140625 -2.73046875 C-19.37144212 -6.57597311 -7.81393009 -5.52293488 0 0 Z M-30.23828125 3.41796875 C-30.26293135 8.52660771 -30.28111732 13.63521234 -30.29321289 18.74389648 C-30.29825329 20.48316043 -30.30508555 22.22242011 -30.3137207 23.96166992 C-30.32579917 26.45622812 -30.33151233 28.95073048 -30.3359375 31.4453125 C-30.34109879 32.22760727 -30.34626007 33.00990204 -30.35157776 33.81590271 C-30.35177351 35.68363989 -30.30027819 37.55126079 -30.23828125 39.41796875 C-28.18646701 41.46978299 -24.0501532 40.65792213 -21.23828125 40.66796875 C-10.69958368 40.77031114 -10.69958368 40.77031114 -1.62890625 35.98828125 C3.11189918 30.63489984 3.17022705 25.57385229 3.1015625 18.72265625 C2.61863905 14.02664205 1.19993809 10.67483147 -2.23828125 7.41796875 C-8.19452211 3.05160989 -12.93063645 2.91045164 -20.17578125 3.16796875 C-21.63081055 3.19503906 -21.63081055 3.19503906 -23.11523438 3.22265625 C-25.49063019 3.26946208 -27.86391969 3.3350049 -30.23828125 3.41796875 Z " fill="#E8D35C" transform="translate(52.23828125,13.58203125)"/>
<path d="M0 0 C0.97582031 -0.01224609 1.95164063 -0.02449219 2.95703125 -0.03710938 C4.35501953 -0.04000977 4.35501953 -0.04000977 5.78125 -0.04296875 C6.63783203 -0.04707764 7.49441406 -0.05118652 8.37695312 -0.05541992 C10.5 0.1875 10.5 0.1875 12.5 2.1875 C12.17 2.5175 11.84 2.8475 11.5 3.1875 C12.33144531 3.56841797 12.33144531 3.56841797 13.1796875 3.95703125 C13.90414062 4.30121094 14.62859375 4.64539063 15.375 5 C16.09429687 5.33644531 16.81359375 5.67289062 17.5546875 6.01953125 C19.5 7.1875 19.5 7.1875 21.5 10.1875 C16.29736853 11.37976971 13.99098595 11.0118222 9 8.90625 C2.05847324 6.91056106 -6.66971134 6.83171287 -13.25 10 C-16.3611561 11.92905748 -16.3611561 11.92905748 -18.078125 13.82421875 C-19.5 15.1875 -19.5 15.1875 -21.5 15.1875 C-21.78875 15.77402344 -22.0775 16.36054688 -22.375 16.96484375 C-23.05371275 18.30577276 -23.75560025 19.63579888 -24.5 20.94140625 C-27.56321525 26.4815182 -28.6291311 31.95391212 -29.5 38.1875 C-31.15 38.1875 -32.8 38.1875 -34.5 38.1875 C-35.87988519 28.21242632 -35.47568456 22.16171809 -29.625 13.9375 C-21.77630371 4.0930472 -12.17331515 0.0080405 0 0 Z " fill="#FCF9BC" transform="translate(36.5,-0.1875)"/>
<path d="M0 0 C3 2 3 2 3.73046875 4.72265625 C5.70020219 19.11686215 5.88807504 29.72673447 -3.1875 41.80859375 C-7.98048634 47.60356214 -13.61669585 51.27309273 -21 53 C-25.0804757 53.07708707 -28.97431849 52.63624277 -33 52 C-34.85625 51.7215625 -34.85625 51.7215625 -36.75 51.4375 C-37.4925 51.293125 -38.235 51.14875 -39 51 C-36.18381745 48.18381745 -33.92992637 48.51323869 -30 48.125 C-20.56833107 47.01135141 -13.31236089 44.96116413 -6.47265625 38.171875 C-2.35774292 32.10319646 -1.55482847 26.1283512 -1.75 18.9375 C-1.75773437 17.7918457 -1.75773437 17.7918457 -1.765625 16.62304688 C-1.81506837 13.01059089 -2.05449574 9.64560192 -2.60546875 6.0625 C-3 3 -3 3 -1.5625 1.0625 C-1.046875 0.711875 -0.53125 0.36125 0 0 Z " fill="#773E11" transform="translate(65,15)"/>
<path d="M0 0 C0.5259375 0.7425 0.5259375 0.7425 1.0625 1.5 C3.94374289 3.73063966 6.47009026 3.19980621 10 3 C10.98643638 8.12283766 11.30967053 13.17748929 11.5625 18.375 C11.60568359 19.20644531 11.64886719 20.03789063 11.69335938 20.89453125 C11.79861805 22.92953228 11.89973072 24.96474703 12 27 C25.1358271 27.34884922 25.1358271 27.34884922 38 25 C36 28 36 28 33.28515625 28.625 C32.22167969 28.74875 31.15820312 28.8725 30.0625 29 C25.72273963 29.50621749 23.98999071 29.91813806 21 33 C17.8505261 33.42340993 15.00581988 33.01104851 12 32 C9.6875 29 9.6875 29 8 26 C7.34 25.855625 6.68 25.71125 6 25.5625 C4 25 4 25 1.8125 21.6875 C-0.59648757 17.26302482 -1.13866074 13.45782296 -1.125 8.4375 C-1.12757812 7.48746094 -1.13015625 6.53742187 -1.1328125 5.55859375 C-1 3 -1 3 0 0 Z " fill="#F3E57D" transform="translate(11,26)"/>
<path d="M0 0 C7.38137686 0 8.43647832 0.21680526 14 4 C15.97823694 7.95647388 15.56487734 12.6982418 15 17 C12.47429367 20.41311667 11.00086696 21.66637768 7 23 C4.69 23 2.38 23 0 23 C0 15.41 0 7.82 0 0 Z " fill="#DECB39" transform="translate(31,24)"/>
<path d="M0 0 C2.64 0 5.28 0 8 0 C8 0.33 8 0.66 8 1 C5.69 1 3.38 1 1 1 C1 8.59 1 16.18 1 24 C9.89491735 22.92272567 9.89491735 22.92272567 15 18 C15.66 17.34 16.32 16.68 17 16 C17 17.98 17 19.96 17 22 C17.66 22.33 18.32 22.66 19 23 C19.625 25.0625 19.625 25.0625 20 27 C13.50862271 29.81701279 8.53621454 31.16045156 1.375 31.125 C0.58609375 31.12886719 -0.2028125 31.13273437 -1.015625 31.13671875 C-6.87334606 31.12665394 -6.87334606 31.12665394 -8 30 C-8.07325168 27.13732433 -8.09238205 24.299281 -8.0625 21.4375 C-8.05798828 20.63119141 -8.05347656 19.82488281 -8.04882812 18.99414062 C-8.03700518 16.99606244 -8.01906914 14.99802217 -8 13 C-7.34 13 -6.68 13 -6 13 C-5.34 16.63 -4.68 20.26 -4 24 C-3.01 23.34 -2.02 22.68 -1 22 C-0.49156938 19.68246412 -0.49156938 19.68246412 -0.48828125 16.9921875 C-0.45283203 16.00605469 -0.41738281 15.01992188 -0.38085938 14.00390625 C-0.34702148 12.45509766 -0.34702148 12.45509766 -0.3125 10.875 C-0.27833984 9.83472656 -0.24417969 8.79445313 -0.20898438 7.72265625 C-0.12632942 5.14854493 -0.05723845 2.57478171 0 0 Z " fill="#3D1B04" transform="translate(30,23)"/>
<path d="M0 0 C0.66 0.66 1.32 1.32 2 2 C1.67 3.32 1.34 4.64 1 6 C-4.94 6 -10.88 6 -17 6 C-17 12.27 -17 18.54 -17 25 C-17.33 25 -17.66 25 -18 25 C-18 23.02 -18 21.04 -18 19 C-19.11375 19.20625 -20.2275 19.4125 -21.375 19.625 C-22.57125 19.74875 -23.7675 19.8725 -25 20 C-27 18 -27 18 -27.0625 15.375 C-25.1884762 9.4222185 -20.80419548 5.71828141 -16.375 1.5 C-11.12482631 -0.83341053 -5.66328143 -0.67271022 0 0 Z " fill="#FAF5C6" transform="translate(39,10)"/>
<path d="M0 0 C2.54232342 -0.08152344 5.08199202 -0.14073716 7.625 -0.1875 C8.33785156 -0.21263672 9.05070312 -0.23777344 9.78515625 -0.26367188 C14.60807208 -0.33004228 17.80277564 0.36795063 22 3 C23.4375 4.9375 23.4375 4.9375 24 7 C23.625 9.25 23.625 9.25 23 11 C22.443125 10.71125 21.88625 10.4225 21.3125 10.125 C18.91505355 8.9586747 16.48403061 7.9660119 14 7 C14 6.34 14 5.68 14 5 C11.36 5 8.72 5 6 5 C6 10.61 6 16.22 6 22 C4.68 21.67 3.36 21.34 2 21 C0.49025965 13.90961228 -0.28307925 7.24997422 0 0 Z " fill="#6C390E" transform="translate(24,18)"/>
<path d="M0 0 C0.33 0 0.66 0 1 0 C1.33 2.97 1.66 5.94 2 9 C2.99 9 3.98 9 5 9 C5.33 7.02 5.66 5.04 6 3 C6.33 3 6.66 3 7 3 C7.09796875 3.94101562 7.1959375 4.88203125 7.296875 5.8515625 C8.33529723 15.1783511 8.33529723 15.1783511 13 23 C13.69429379 24.3191582 14.37530495 25.64649406 15 27 C14.34 27 13.68 27 13 27 C13.33 28.65 13.66 30.3 14 32 C13.01 32 12.02 32 11 32 C11.99 32.99 12.98 33.98 14 35 C13.01 35.495 13.01 35.495 12 36 C12 35.34 12 34.68 12 34 C11.10474609 33.62294922 11.10474609 33.62294922 10.19140625 33.23828125 C5.20659395 30.42155131 2.66435485 25.04739839 0.94921875 19.76171875 C-0.6795243 13.06920585 -2.22675013 6.6802504 0 0 Z " fill="#977242" transform="translate(1,28)"/>
<path d="M0 0 C7.67871203 4.15026432 12.42648825 8.89020975 15 17.375 C15.25 20.4375 15.25 20.4375 15 22.375 C14.0035585 20.41692718 13.03896302 18.46622147 12.17578125 16.4453125 C9.46844185 10.34461105 5.92543562 6.27671927 -0.13671875 3.33984375 C-7.70603947 0.49969723 -16.48550421 0.06327557 -24 3.375 C-30.47003748 7.49994955 -34.69681973 13.06027008 -37 20.375 C-38.02128949 27.4258255 -36.88092438 32.94832254 -34 39.375 C-33.608125 40.365 -33.21625 41.355 -32.8125 42.375 C-32.544375 43.035 -32.27625 43.695 -32 44.375 C-35.8965788 41.84748943 -38.04453622 39.37491689 -39.48828125 34.91015625 C-41.1826402 26.51596575 -41.21954123 18.49504159 -36.42578125 11.203125 C-27.39598718 -0.37480273 -14.25445529 -5.89839529 0 0 Z " fill="#744910" transform="translate(48,8.625)"/>
<path d="M0 0 C6.05697658 -0.43567726 9.38802714 2.37799065 14 6 C16.44356172 8.23807024 18.75670867 10.56195347 21 13 C20.67 13.66 20.34 14.32 20 15 C19.34 15 18.68 15 18 15 C17.01 15.33 16.02 15.66 15 16 C15.32226562 16.97195312 15.64453125 17.94390625 15.9765625 18.9453125 C18.29328305 27.10098891 18.62674247 38.26230091 15.4375 46.1875 C11.31251422 53.51761411 6.0048188 57.47640518 -1.765625 60.46875 C-4 61 -4 61 -7 60 C-6.07380859 59.70609375 -6.07380859 59.70609375 -5.12890625 59.40625 C2.43860822 56.73400745 8.52751734 52.91013472 13.2265625 46.265625 C16.58802738 39.16570853 16.11928467 28.62890608 14.30859375 21.140625 C12.26581357 16.04649535 9.45231436 13.13685784 5 10 C7 8 7 8 10 7 C6.74820188 4.78286492 3.5786304 2.65167557 0 1 C0 0.67 0 0.34 0 0 Z " fill="#DCB173" transform="translate(47,2)"/>
<path d="M0 0 C0 0.66 0 1.32 0 2 C-6.65940962 4.91349171 -13.37178839 6.11402281 -20.48828125 7.3515625 C-25.23010531 8.14087067 -25.23010531 8.14087067 -28.875 11 C-31.28751935 13.27060644 -32.76077175 13.64008575 -36 14 C-32.01164236 6.71691214 -25.81555296 2.71801056 -18 0.125 C-11.89465555 -1.49167999 -6.0952451 -1.69464213 0 0 Z " fill="#FCFCD3" transform="translate(44,2)"/>
<path d="M0 0 C4.96364951 4.96364951 5.22201255 12.70677085 5.3125 19.375 C5.29431988 24.84115571 4.91063617 28.08936383 1 32 C0.4225 33.051875 -0.155 34.10375 -0.75 35.1875 C-5.67258157 43.7841823 -11.5037533 48.62438106 -21 52 C-24.375 52.16015625 -24.375 52.16015625 -27 52 C-24.06920694 50.04613796 -21.54317099 49.07023719 -18.25 47.875 C-9.14020159 44.10580717 -5.16390753 38.04125418 -0.9453125 29.39453125 C0.62161279 25.42541883 1.13977762 21.68606704 1.125 17.4375 C1.12757812 16.69371094 1.13015625 15.94992188 1.1328125 15.18359375 C1.069227 13.01337988 1.069227 13.01337988 0.49609375 11.01953125 C-0.07412469 8.6982483 -0.09759839 6.63669086 -0.0625 4.25 C-0.05347656 3.45078125 -0.04445313 2.6515625 -0.03515625 1.828125 C-0.02355469 1.22484375 -0.01195313 0.6215625 0 0 Z " fill="#E8D8BD" transform="translate(68,17)"/>
<path d="M0 0 C7.38137686 0 8.43647832 0.21680526 14 4 C15.26237731 6.52475462 15.09856404 8.31200466 15.0625 11.125 C15.05347656 12.03507812 15.04445313 12.94515625 15.03515625 13.8828125 C15.02355469 14.58148438 15.01195312 15.28015625 15 16 C14.67 16 14.34 16 14 16 C14 13.36 14 10.72 14 8 C12.7625 8.33 11.525 8.66 10.25 9 C7.25408155 9.79891159 5.19892281 10 2 10 C1.67 13.96 1.34 17.92 1 22 C0.67 22 0.34 22 0 22 C0 14.74 0 7.48 0 0 Z " fill="#F1E29E" transform="translate(31,24)"/>
<path d="M0 0 C0 5.61 0 11.22 0 17 C-6.80625 14.73125 -6.80625 14.73125 -9.25390625 9.88671875 C-10.2785709 7.29555108 -10.73026245 4.76480989 -11 2 C-6.9402698 0.48940272 -4.45389333 0 0 0 Z " fill="#EAD751" transform="translate(21,36)"/>
<path d="M0 0 C1.95218444 3.27688103 2.27063566 5.77069727 2.25 9.5625 C2.25515625 10.51253906 2.2603125 11.46257813 2.265625 12.44140625 C2 15 2 15 0 18 C-1.66072849 18.68132451 -3.327767 19.34742127 -5 20 C-6.77277259 21.52007842 -6.77277259 21.52007842 -8 23 C-7.41181172 20.54921548 -6.74194621 18.16132519 -6 15.75 C-4.94374067 11.78902751 -4.42840807 8.06987666 -4 4 C-3.01 3.67 -2.02 3.34 -1 3 C-0.67 2.01 -0.34 1.02 0 0 Z " fill="#9F6113" transform="translate(61,27)"/>
<path d="M0 0 C2.68844453 2.25482445 3.89807437 3.66704294 4.9375 7.0625 C4.958125 8.031875 4.97875 9.00125 5 10 C4.52433594 10.42667969 4.04867187 10.85335938 3.55859375 11.29296875 C1.30037816 13.7662525 1.43900582 15.95676826 1.125 19.25 C0.34424007 25.27396672 -1.0041474 28.47837732 -5 33 C-5.66 32.67 -6.32 32.34 -7 32 C-6.360625 31.236875 -5.72125 30.47375 -5.0625 29.6875 C-2.22444593 25.98942954 -1.88170948 23.48648878 -1.97265625 18.96484375 C-1.98490234 17.99095703 -1.99714844 17.01707031 -2.00976562 16.01367188 C-2.04499003 13.95891499 -2.0840675 11.90422063 -2.12695312 9.84960938 C-2.13791016 8.87701172 -2.14886719 7.90441406 -2.16015625 6.90234375 C-2.17699463 6.01023193 -2.19383301 5.11812012 -2.21118164 4.19897461 C-2 2 -2 2 0 0 Z " fill="#CEAD5B" transform="translate(56,18)"/>
<path d="M0 0 C0.33 0 0.66 0 1 0 C1.33 2.97 1.66 5.94 2 9 C2.99 9 3.98 9 5 9 C5.33 7.02 5.66 5.04 6 3 C6.33 3 6.66 3 7 3 C7.2210949 5.95789127 7.42740245 8.91552764 7.625 11.875 C7.68945312 12.71675781 7.75390625 13.55851562 7.8203125 14.42578125 C7.871875 15.23144531 7.9234375 16.03710938 7.9765625 16.8671875 C8.02893066 17.61081543 8.08129883 18.35444336 8.13525391 19.12060547 C8 21 8 21 6 23 C4.25728062 20.702779 2.60088848 18.40133271 1 16 C0.67 16 0.34 16 0 16 C-0.19504458 13.89651926 -0.38078496 11.79217415 -0.5625 9.6875 C-0.66691406 8.51574219 -0.77132813 7.34398437 -0.87890625 6.13671875 C-1 3 -1 3 0 0 Z " fill="#C0A954" transform="translate(1,28)"/>
<path d="M0 0 C1.155 0.165 2.31 0.33 3.5 0.5 C6.45587047 0.88258607 9.27210157 1.0214633 12.25 0.9375 C15.65245028 0.9942075 17.23249867 1.15499911 20 3 C19.67 3.99 19.34 4.98 19 6 C17.02 6 15.04 6 13 6 C13 5.34 13 4.68 13 4 C10.36 4 7.72 4 5 4 C5 6.31 5 8.62 5 11 C4.01 11 3.02 11 2 11 C0.57741188 7.17679443 -0.24042276 4.08718695 0 0 Z " fill="#864F13" transform="translate(25,19)"/>
<path d="M0 0 C0.33 0 0.66 0 1 0 C1.33745354 2.39531756 1.6700829 4.79114268 2 7.1875 C2.14308594 8.19780273 2.14308594 8.19780273 2.2890625 9.22851562 C2.78324613 12.84664577 3.11346131 16.34796401 3 20 C4.32 20.33 5.64 20.66 7 21 C7.25 23.25 7.25 23.25 7 26 C5.0625 28.3125 5.0625 28.3125 3 30 C2.67 30 2.34 30 2 30 C0.89771304 25.59085217 0.92345464 21.51617599 1 17 C0.34 17 -0.32 17 -1 17 C-1.02684679 14.35409986 -1.04676357 11.70846904 -1.0625 9.0625 C-1.07087891 8.30775391 -1.07925781 7.55300781 -1.08789062 6.77539062 C-1.09652441 4.85005687 -1.05224333 2.92464419 -1 1 C-0.67 0.67 -0.34 0.34 0 0 Z " fill="#4F2C0F" transform="translate(23,19)"/>
<path d="M0 0 C0.66 0.99 1.32 1.98 2 3 C2.66 3.33 3.32 3.66 4 4 C5.04976964 7.14930893 5.10131595 9.38814456 5.0625 12.6875 C5.05347656 13.68136719 5.04445313 14.67523438 5.03515625 15.69921875 C5.02355469 16.45847656 5.01195312 17.21773437 5 18 C4.67 18 4.34 18 4 18 C4 16.02 4 14.04 4 12 C2.88625 12.20625 1.7725 12.4125 0.625 12.625 C-0.57125 12.74875 -1.7675 12.8725 -3 13 C-3.66 12.34 -4.32 11.68 -5 11 C-4.7831713 6.12135417 -3.25135812 3.56600568 0 0 Z " fill="#FAF4BD" transform="translate(17,17)"/>
<path d="M0 0 C2.97 0.495 2.97 0.495 6 1 C5.67 1.66 5.34 2.32 5 3 C5.55429687 3.25394531 6.10859375 3.50789062 6.6796875 3.76953125 C7.40414062 4.11371094 8.12859375 4.45789063 8.875 4.8125 C9.59429687 5.14894531 10.31359375 5.48539062 11.0546875 5.83203125 C13 7 13 7 15 10 C9.77771919 11.19677268 6.89657198 10.8639634 2 8.76953125 C-0.97380715 7.62531248 -3.840406 7.32912437 -7 7 C-4.08235 5.0549 -2.37462715 4.54723683 1 4 C0.67 2.68 0.34 1.36 0 0 Z " fill="#F4E78C" transform="translate(43,0)"/>
<path d="M0 0 C0.77666016 -0.01224609 1.55332031 -0.02449219 2.35351562 -0.03710938 C6.27482309 -0.04724195 8.22868745 -0.0350417 11.5625 2.1875 C10.59570312 2.15269531 9.62890625 2.11789063 8.6328125 2.08203125 C-3.21268374 1.83573875 -13.24544712 3.01678633 -22.4375 11.1875 C-24.19234622 13.39446817 -25.69853701 15.62256169 -27.1484375 18.0390625 C-28.44976279 20.20793799 -29.89071426 22.18843773 -31.4375 24.1875 C-31.93389127 18.66879708 -29.68339887 16.35595074 -26.29296875 12.26171875 C-19.24698856 4.38505458 -10.39319474 0.00858232 0 0 Z " fill="#C9C69F" transform="translate(34.4375,-0.1875)"/>
<path d="M0 0 C3.46941546 0.45822468 6.67395049 0.89131683 10 2 C11.89212737 2.22179785 13.78884472 2.40614015 15.6875 2.5625 C16.68136719 2.64628906 17.67523438 2.73007812 18.69921875 2.81640625 C19.83810547 2.90728516 19.83810547 2.90728516 21 3 C20.67 3.66 20.34 4.32 20 5 C19.11957031 4.97679687 18.23914063 4.95359375 17.33203125 4.9296875 C16.17058594 4.91164063 15.00914063 4.89359375 13.8125 4.875 C12.66394531 4.85179687 11.51539063 4.82859375 10.33203125 4.8046875 C7.08259628 4.99515848 4.91339479 5.60639873 2 7 C2 7.66 2 8.32 2 9 C0.02 8.34 -1.96 7.68 -4 7 C-3 5 -3 5 -1 3 C-0.67 2.01 -0.34 1.02 0 0 Z " fill="#AC6B2B" transform="translate(19,59)"/>
<path d="M0 0 C-3.11114702 3.11114702 -6.89997747 2.8076521 -11.15234375 3.33984375 C-14.26093668 4.06049149 -14.85463096 4.82483417 -17 7 C-19.19140625 7.1796875 -19.19140625 7.1796875 -21.5625 6.875 C-22.34753906 6.78992187 -23.13257813 6.70484375 -23.94140625 6.6171875 C-26 6 -26 6 -28 3 C-25.68735392 0.68735392 -19.26057963 1.59192363 -15.96484375 1.48242188 C-12.14952032 1.31640205 -8.70001355 1.03251293 -5.0390625 -0.09765625 C-2 -1 -2 -1 0 0 Z " fill="#C19153" transform="translate(49,52)"/>
<path d="M0 0 C1.41655793 -0.0272415 2.83327045 -0.04650467 4.25 -0.0625 C5.43335938 -0.07990234 5.43335938 -0.07990234 6.640625 -0.09765625 C8.90691002 -0.00385306 10.8288895 0.36758937 13 1 C13 1.66 13 2.32 13 3 C6.14117712 5.95870791 -0.61394333 7.04296522 -8 8 C-2.85714286 2.42857143 -2.85714286 2.42857143 1 2 C0.67 1.34 0.34 0.68 0 0 Z " fill="#FAF6B3" transform="translate(31,1)"/>
<path d="M0 0 C3 2 3 2 3.73046875 5.2578125 C3.95669922 7.17207031 3.95669922 7.17207031 4.1875 9.125 C4.34605469 10.40632813 4.50460938 11.68765625 4.66796875 13.0078125 C4.83232422 14.48894531 4.83232422 14.48894531 5 16 C3.68 16.33 2.36 16.66 1 17 C0.32471777 15.42032193 -0.33989694 13.83608097 -1 12.25 C-1.37125 11.36828125 -1.7425 10.4865625 -2.125 9.578125 C-3 7 -3 7 -3 3 C-1.5 1.25 -1.5 1.25 0 0 Z " fill="#A96B0D" transform="translate(65,15)"/>
<path d="M0 0 C1.32 1.32 2.64 2.64 4 4 C3.01 4.33 2.02 4.66 1 5 C1.99 6.485 1.99 6.485 3 8 C2.34 8 1.68 8 1 8 C0.67 9.65 0.34 11.3 0 13 C-0.99 13 -1.98 13 -3 13 C-3.33 12.01 -3.66 11.02 -4 10 C-4.99 9.67 -5.98 9.34 -7 9 C-6.01 8.67 -5.02 8.34 -4 8 C-4.185625 7.38125 -4.37125 6.7625 -4.5625 6.125 C-5 4 -5 4 -4 2 C-3.67 2.33 -3.34 2.66 -3 3 C-2.01 2.01 -1.02 1.02 0 0 Z " fill="#985513" transform="translate(18,51)"/>
<path d="M0 0 C0.91881757 2.50122561 1.13154862 3.6498301 0.1796875 6.18359375 C-2.45967377 10.74320887 -4.99955867 14.48741737 -9 18 C-9.48597656 18.44214844 -9.97195312 18.88429688 -10.47265625 19.33984375 C-14.42330401 22.82570942 -17.67105335 25 -23 25 C-23 24.34 -23 23.68 -23 23 C-22.2265625 22.68289062 -21.453125 22.36578125 -20.65625 22.0390625 C-11.2945354 17.84482898 -5.17475559 12.35958297 -1 2.875 C-0.67 1.92625 -0.34 0.9775 0 0 Z " fill="#716342" transform="translate(70,45)"/>
<path d="M0 0 C0.433125 0.495 0.86625 0.99 1.3125 1.5 C2.99740483 3.33218192 2.99740483 3.33218192 6 3 C6.07654536 7.51617599 6.10228696 11.59085217 5 16 C4.34 16 3.68 16 3 16 C-1.1479151 11.37347931 -0.27510986 5.81806416 0 0 Z " fill="#86551A" transform="translate(64,28)"/>
<path d="M0 0 C0.7425 0.185625 1.485 0.37125 2.25 0.5625 C5.05944338 1.0094569 6.32144789 0.73051421 9 0 C10.99963028 -0.03845443 13.00051633 -0.04544281 15 0 C15 0.99 15 1.98 15 3 C9.20377279 5.32637691 5.13909603 6.43680971 -1 5 C-0.67 3.35 -0.34 1.7 0 0 Z " fill="#432411" transform="translate(34,48)"/>
<path d="M0 0 C0 1.32 0 2.64 0 4 C-0.99 4 -1.98 4 -3 4 C-3 4.66 -3 5.32 -3 6 C-14.52164009 5.03644647 -14.52164009 5.03644647 -20 4 C-17.22195244 1.22195244 -14.30120363 1.30408922 -10.5625 0.875 C-9.5405957 0.74544922 -9.5405957 0.74544922 -8.49804688 0.61328125 C-5.64465997 0.26114927 -2.87751517 0 0 0 Z " fill="#823B09" transform="translate(46,62)"/>
<path d="M0 0 C0.33 0.99 0.66 1.98 1 3 C-3.625 7.875 -3.625 7.875 -7 9 C-9.33299825 9.03954234 -11.66708189 9.04401732 -14 9 C-13.3125 7.0625 -13.3125 7.0625 -12 5 C-10.33871537 4.64080332 -8.67099977 4.31088368 -7 4 C-1.78787879 0 -1.78787879 0 0 0 Z " fill="#B09240" transform="translate(45,38)"/>
<path d="M0 0 C1.093125 0.185625 2.18625 0.37125 3.3125 0.5625 C6.93624133 1.2578068 6.93624133 1.2578068 10 0 C10 3.3 10 6.6 10 10 C6.94749671 9.37562433 4.67908472 8.87252098 2.7109375 6.34375 C0 1.58498201 0 1.58498201 0 0 Z " fill="#C79D26" transform="translate(11,43)"/>
<path d="M0 0 C4.12412265 4.12412265 4.90490768 10.12532292 5.19140625 15.7734375 C5.18794385 19.1873663 5.13271192 22.58881202 5 26 C4.34 26.33 3.68 26.66 3 27 C3 22.38 3 17.76 3 13 C2.34 13 1.68 13 1 13 C0.1276588 10.00519083 -0.10829766 7.36424089 -0.0625 4.25 C-0.05347656 3.45078125 -0.04445313 2.6515625 -0.03515625 1.828125 C-0.02355469 1.22484375 -0.01195313 0.6215625 0 0 Z " fill="#A29670" transform="translate(68,17)"/>
<path d="M0 0 C0.33 0 0.66 0 1 0 C1 1.98 1 3.96 1 6 C1.66 6.33 2.32 6.66 3 7 C3 7.99 3 8.98 3 10 C0.03 9.67 -2.94 9.34 -6 9 C-6.33 9.66 -6.66 10.32 -7 11 C-9.64 10.34 -12.28 9.68 -15 9 C-15 8.67 -15 8.34 -15 8 C-14.32453125 7.90203125 -13.6490625 7.8040625 -12.953125 7.703125 C-6.02142581 6.63891862 -6.02142581 6.63891862 -1 2 C-0.67 1.34 -0.34 0.68 0 0 Z " fill="#301205" transform="translate(46,39)"/>
<path d="M0 0 C0.66 0.99 1.32 1.98 2 3 C-3.71195282 8.82651921 -9.20136464 11.69194799 -17 14 C-17 13.34 -17 12.68 -17 12 C-16.01 12 -15.02 12 -14 12 C-14 10.35 -14 8.7 -14 7 C-11.03 7.495 -11.03 7.495 -8 8 C-7.34 7.01 -6.68 6.02 -6 5 C-5.34 5 -4.68 5 -4 5 C-4 4.34 -4 3.68 -4 3 C-2 1.375 -2 1.375 0 0 Z " fill="#85491D" transform="translate(60,54)"/>
<path d="M0 0 C5.4389165 -0.21755666 9.87080814 -0.10428384 15 2 C14.505 2.433125 14.01 2.86625 13.5 3.3125 C11.66781808 4.99740483 11.66781808 4.99740483 12 8 C4.74 8 -2.52 8 -10 8 C-10 7.67 -10 7.34 -10 7 C-4.06 7 1.88 7 8 7 C7.67 5.35 7.34 3.7 7 2 C4.69 1.67 2.38 1.34 0 1 C0 0.67 0 0.34 0 0 Z " fill="#E0D191" transform="translate(32,9)"/>
<path d="M0 0 C-1.98 0.99 -1.98 0.99 -4 2 C-3.31292969 2.12117188 -2.62585938 2.24234375 -1.91796875 2.3671875 C-1.01691406 2.53476563 -0.11585937 2.70234375 0.8125 2.875 C2.15248047 3.11863281 2.15248047 3.11863281 3.51953125 3.3671875 C6 4 6 4 9 6 C8 7 8 7 4.69140625 7.01953125 C3.31480475 6.95677638 1.93849078 6.88746164 0.5625 6.8125 C-0.47874023 6.78446289 -0.47874023 6.78446289 -1.54101562 6.75585938 C-3.55859375 6.64453125 -3.55859375 6.64453125 -7 6 C-8.47265625 3.94921875 -8.47265625 3.94921875 -9 2 C-5.5647952 -0.29013653 -4.014669 -0.17842973 0 0 Z " fill="#90521E" transform="translate(32,63)"/>
<path d="M0 0 C0.598125 0.763125 1.19625 1.52625 1.8125 2.3125 C3.46959332 4.3483575 5.10297674 6.1978279 7 8 C6 10 6 10 5 11 C5.40929986 13.05396726 5.40929986 13.05396726 6 15 C2.13322435 13.533292 0.99014441 11.52798328 -1 8 C-1.66 7.67 -2.32 7.34 -3 7 C-2.67 6.34 -2.34 5.68 -2 5 C-1.32650839 3.33607955 -0.6590841 1.66967972 0 0 Z " fill="#B87327" transform="translate(9,45)"/>
<path d="M0 0 C1.45945288 0.08708669 2.91765868 0.19526907 4.375 0.3125 C5.59316406 0.39951172 5.59316406 0.39951172 6.8359375 0.48828125 C9 1 9 1 11 4 C6.73383684 5.13764351 3.43513689 6 -1 6 C-1 7.65 -1 9.3 -1 11 C-1.33 11 -1.66 11 -2 11 C-1.85892253 9.54119891 -1.71197585 8.08296449 -1.5625 6.625 C-1.48128906 5.81289063 -1.40007813 5.00078125 -1.31640625 4.1640625 C-1 2 -1 2 0 0 Z " fill="#E9E568" transform="translate(34,28)"/>
<path d="M0 0 C3.25 -0.3125 3.25 -0.3125 6 0 C5.8125 2.375 5.8125 2.375 5 5 C1.33440697 6.93752774 -1.71055043 7.22384216 -5.8125 7.125 C-7.27623047 7.09792969 -7.27623047 7.09792969 -8.76953125 7.0703125 C-9.50558594 7.04710937 -10.24164062 7.02390625 -11 7 C-11 6.67 -11 6.34 -11 6 C-9.39125 5.9071875 -9.39125 5.9071875 -7.75 5.8125 C-3.22310323 4.83167237 -2.7719175 3.48725104 0 0 Z " fill="#7A3907" transform="translate(42,55)"/>
<path d="M0 0 C6.01059648 -0.45583007 9.44862205 2.37418212 14 6 C16.5625 8.875 16.5625 8.875 18 11 C13.46153846 11 13.46153846 11 11 10 C10.38125 8.8553125 10.38125 8.8553125 9.75 7.6875 C7.28951698 3.90890108 4.06151427 2.72686711 0 1 C0 0.67 0 0.34 0 0 Z " fill="#B99E53" transform="translate(47,2)"/>
<path d="M0 0 C0 0.99 0 1.98 0 3 C-0.99 3.495 -0.99 3.495 -2 4 C0.89186786 5.33304698 0.89186786 5.33304698 3.1875 4.0625 C3.785625 3.711875 4.38375 3.36125 5 3 C2.13463296 7.07763771 -0.43041625 9.02677065 -5 11 C-5.33 10.34 -5.66 9.68 -6 9 C-5.34 9 -4.68 9 -4 9 C-4.33 8.34 -4.66 7.68 -5 7 C-7.52733235 6.34444881 -7.52733235 6.34444881 -10 6 C-7.67054766 4.44703177 -5.48448024 3.24224012 -3 2 C-2.01 1.34 -1.02 0.68 0 0 Z " fill="#824C16" transform="translate(52,49)"/>
<path d="M0 0 C0.33 0 0.66 0 1 0 C1 1.65 1 3.3 1 5 C2.65 4.67 4.3 4.34 6 4 C5.67 6.97 5.34 9.94 5 13 C3.35 13 1.7 13 0 13 C-0.19397476 11.02145742 -0.38001321 9.0421352 -0.5625 7.0625 C-0.66691406 5.96035156 -0.77132812 4.85820312 -0.87890625 3.72265625 C-0.91886719 2.82417969 -0.95882812 1.92570312 -1 1 C-0.67 0.67 -0.34 0.34 0 0 Z " fill="#F0DF71" transform="translate(2,25)"/>
<path d="M0 0 C5.95865187 5.80586592 5.95865187 5.80586592 6.09765625 9.8203125 C6.08605469 10.91085938 6.07445312 12.00140625 6.0625 13.125 C6.05347656 14.22070312 6.04445313 15.31640625 6.03515625 16.4453125 C6.02355469 17.28835937 6.01195312 18.13140625 6 19 C5.67 19 5.34 19 5 19 C4.89042969 18.39671875 4.78085937 17.7934375 4.66796875 17.171875 C3.75630612 12.57650238 2.84260156 9.74706569 0 6 C-0.1875 2.75 -0.1875 2.75 0 0 Z " fill="#441F0A" transform="translate(49,22)"/>
<path d="M0 0 C1.65 0.33 3.3 0.66 5 1 C5.1953125 7.0546875 5.1953125 7.0546875 5 9 C4.34 9.66 3.68 10.32 3 11 C0.5091419 8.07594919 -0.59599278 5.83806856 -1 2 C-0.67 1.34 -0.34 0.68 0 0 Z " fill="#D2A529" transform="translate(4,40)"/>
<path d="M0 0 C0.33 0 0.66 0 1 0 C1.25394531 1.18078125 1.50789062 2.3615625 1.76953125 3.578125 C2.11666444 5.13553335 2.46434971 6.69281871 2.8125 8.25 C2.97814453 9.02730469 3.14378906 9.80460937 3.31445312 10.60546875 C4.24414497 14.71014593 5.03620312 17.84088126 8 21 C7.67 21.66 7.34 22.32 7 23 C0.35257542 15.65284652 -0.31232314 9.75142246 0 0 Z " fill="#6F3303" transform="translate(8,30)"/>
<path d="M0 0 C1.26237731 2.52475462 1.09856404 4.31200466 1.0625 7.125 C1.05347656 8.03507812 1.04445313 8.94515625 1.03515625 9.8828125 C1.02355469 10.58148438 1.01195312 11.28015625 1 12 C0.67 12 0.34 12 0 12 C-0.33 9.03 -0.66 6.06 -1 3 C-4.3171411 1.5783681 -7.44219804 0.60990891 -11 0 C-11.33 0.66 -11.66 1.32 -12 2 C-12 0.68 -12 -0.64 -12 -2 C-6.87051373 -3.10635978 -4.19545528 -3.33168508 0 0 Z " fill="#F4EE89" transform="translate(45,28)"/>
<path d="M0 0 C1.32 0 2.64 0 4 0 C4 0.66 4 1.32 4 2 C5.32 2 6.64 2 8 2 C8 3.65 8 5.3 8 7 C2.69520066 7 1.81017373 5.4637943 -2 2 C-1.34 1.34 -0.68 0.68 0 0 Z " fill="#E1BD3B" transform="translate(54,10)"/>
<path d="M0 0 C2.75 1.375 2.75 1.375 5 3 C3.515 5.475 3.515 5.475 2 8 C-0.97 7.505 -0.97 7.505 -4 7 C-4 5.35 -4 3.7 -4 2 C-2.3125 0.8125 -2.3125 0.8125 0 0 Z " fill="#F2E67A" transform="translate(47,11)"/>
<path d="M0 0 C0.33 0.99 0.66 1.98 1 3 C-5.25711292 7.72475874 -10.8167944 11.59877114 -19 11 C-15.19220183 8.46146789 -11.17034504 7.05056625 -6.91015625 5.4140625 C-3.93784063 3.96979639 -2.17237014 2.46027462 0 0 Z " fill="#D3BE9D" transform="translate(60,58)"/>
<path d="M0 0 C3.3956697 -0.08745946 6.79104773 -0.14054444 10.1875 -0.1875 C11.14720703 -0.21263672 12.10691406 -0.23777344 13.09570312 -0.26367188 C21.88777807 -0.35493909 21.88777807 -0.35493909 26 3 C25.67 3.66 25.34 4.32 25 5 C24.01644531 4.51015625 23.03289063 4.0203125 22.01953125 3.515625 C17.84522873 1.72859043 14.17433571 1.61693351 9.6875 1.75 C8.61532227 1.75773437 8.61532227 1.75773437 7.52148438 1.765625 C3.6315716 1.7746988 3.6315716 1.7746988 0 3 C0 2.01 0 1.02 0 0 Z " fill="#200800" transform="translate(22,17)"/>
<path d="M0 0 C0.99 0.33 1.98 0.66 3 1 C2.49339844 1.79664063 2.49339844 1.79664063 1.9765625 2.609375 C1.53054688 3.31578125 1.08453125 4.0221875 0.625 4.75 C0.18414062 5.44609375 -0.25671875 6.1421875 -0.7109375 6.859375 C-2.0348303 8.97166793 -2.0348303 8.97166793 -3.03125 11.21875 C-4 13 -4 13 -6.125 13.75 C-7.053125 13.87375 -7.053125 13.87375 -8 14 C-7.39816251 11.97954558 -6.72693904 9.97888961 -6 8 C-5.34 7.67 -4.68 7.34 -4 7 C-3.67 6.01 -3.34 5.02 -3 4 C-2.34 4 -1.68 4 -1 4 C-0.67 2.68 -0.34 1.36 0 0 Z " fill="#F9F1A1" transform="translate(12,16)"/>
<path d="M0 0 C0.5259375 0.7425 0.5259375 0.7425 1.0625 1.5 C3.94374289 3.73063966 6.47009026 3.19980621 10 3 C9.67 4.32 9.34 5.64 9 7 C8.236875 6.979375 7.47375 6.95875 6.6875 6.9375 C3.89814214 6.87057159 3.89814214 6.87057159 1 8 C-0.35439668 5.29120665 -0.06501451 2.99066732 0 0 Z " fill="#F6F18C" transform="translate(11,26)"/>
<path d="M0 0 C0.33 0 0.66 0 1 0 C1.375 2.25 1.375 2.25 1 5 C-1.875 7.1875 -1.875 7.1875 -5 9 C-5.66 9.66 -6.32 10.32 -7 11 C-9.625 11.125 -9.625 11.125 -12 11 C-12 10.34 -12 9.68 -12 9 C-9.8125 7.5625 -9.8125 7.5625 -7 6 C-6.113125 5.443125 -5.22625 4.88625 -4.3125 4.3125 C-2 3 -2 3 0 3 C0 2.01 0 1.02 0 0 Z " fill="#C9AA2C" transform="translate(44,33)"/>
<path d="M0 0 C3.33655152 0.24715196 4.22536589 1.23073175 6.625 3.6875 C10.05156487 8.09458959 11.32817896 12.42095761 11 18 C10.00851405 16.03449922 9.03137471 14.0676817 8.10546875 12.0703125 C5.91538664 7.42920232 3.43346392 3.81495991 0 0 Z " fill="#5A2901" transform="translate(52,13)"/>
<path d="M0 0 C-0.3125 1.9375 -0.3125 1.9375 -1 4 C-1.99 4.33 -2.98 4.66 -4 5 C-4 4.01 -4 3.02 -4 2 C-6.31 2.33 -8.62 2.66 -11 3 C-11 4.98 -11 6.96 -11 9 C-11.99 9.495 -11.99 9.495 -13 10 C-12.67 7.36 -12.34 4.72 -12 2 C-7.82262526 0.40861915 -4.46839215 -0.21278058 0 0 Z " fill="#DEC946" transform="translate(45,32)"/>
<path d="M0 0 C1.91635217 -0.05423638 3.83314925 -0.09289963 5.75 -0.125 C7.35101563 -0.15980469 7.35101563 -0.15980469 8.984375 -0.1953125 C11.92470106 -0.00487687 13.52361878 0.47329896 16 2 C15.67 2.99 15.34 3.98 15 5 C14.01 4.67 13.02 4.34 12 4 C12 3.34 12 2.68 12 2 C8.04 2 4.08 2 0 2 C0 1.34 0 0.68 0 0 Z " fill="#7F4609" transform="translate(29,20)"/>
<path d="M0 0 C-0.33 1.65 -0.66 3.3 -1 5 C-5.75 6.125 -5.75 6.125 -8 5 C-8 4.01 -8 3.02 -8 2 C-5.09399739 0.74335022 -3.20395416 0 0 0 Z " fill="#DBC239" transform="translate(21,39)"/>
<path d="M0 0 C2 2 2 2 2 5 C-1.375 5.625 -1.375 5.625 -5 6 C-5.66 5.34 -6.32 4.68 -7 4 C-3.375 0 -3.375 0 0 0 Z " fill="#F7FCA8" transform="translate(19,24)"/>
<path d="M0 0 C0.99 0.33 1.98 0.66 3 1 C1.02 1.99 1.02 1.99 -1 3 C-1 3.66 -1 4.32 -1 5 C-1.66 5 -2.32 5 -3 5 C-3.66 6.32 -4.32 7.64 -5 9 C-6.65 9 -8.3 9 -10 9 C-10 8.34 -10 7.68 -10 7 C-8.3203125 5.78125 -8.3203125 5.78125 -6.125 4.5 C-3.74637514 3.10181191 -1.96207916 1.96207916 0 0 Z " fill="#67370B" transform="translate(57,54)"/>
<path d="M0 0 C3 2 3 2 3.75 5 C4 8 4 8 3 10 C2.34 10 1.68 10 1 10 C1 9.34 1 8.68 1 8 C0.01 7.67 -0.98 7.34 -2 7 C-1.34 4.69 -0.68 2.38 0 0 Z " fill="#804711" transform="translate(64,39)"/>
<path d="M0 0 C0.33 0 0.66 0 1 0 C1.125 2.875 1.125 2.875 1 6 C0.34 6.66 -0.32 7.32 -1 8 C-1.40047444 10.32275177 -1.7397104 12.65739357 -2 15 C-4.83022097 11.00439392 -3.76210446 7.57262677 -3 3 C-2.01 2.67 -1.02 2.34 0 2 C0 1.34 0 0.68 0 0 Z " fill="#AE7720" transform="translate(60,28)"/>
<path d="M0 0 C0.95772637 2.56366999 1.13203743 3.66585264 0.109375 6.25390625 C-0.33921875 7.01574219 -0.7878125 7.77757812 -1.25 8.5625 C-1.68828125 9.32691406 -2.1265625 10.09132813 -2.578125 10.87890625 C-3.90092161 12.852199 -5.25757087 14.39594025 -7 16 C-6.50696602 11.93246965 -5.05760185 9.09479691 -2.98828125 5.6484375 C-1.88769613 3.81267893 -0.92597714 1.92911905 0 0 Z " fill="#8D8975" transform="translate(70,45)"/>
<path d="M0 0 C3.12290635 0.48578543 5.99580359 0.9986012 9 2 C7.75264433 2.6509259 6.50198168 3.29551669 5.25 3.9375 C4.55390625 4.29714844 3.8578125 4.65679687 3.140625 5.02734375 C1.09775567 5.95558182 -0.81115376 6.53166578 -3 7 C-3 6.34 -3 5.68 -3 5 C-2.01 5 -1.02 5 0 5 C0 3.35 0 1.7 0 0 Z " fill="#79441D" transform="translate(46,61)"/>
<path d="M0 0 C1.32 0.33 2.64 0.66 4 1 C4 3.64 4 6.28 4 9 C3.01 9.33 2.02 9.66 1 10 C-0.32 8.68 -1.64 7.36 -3 6 C-2.01 6 -1.02 6 0 6 C0.33 6.33 0.66 6.66 1 7 C0.67 4.69 0.34 2.38 0 0 Z " fill="#592C0A" transform="translate(46,21)"/>
<path d="M0 0 C-1.4160599 0.79275148 -2.83287553 1.58415312 -4.25 2.375 C-5.43335938 3.03628906 -5.43335938 3.03628906 -6.640625 3.7109375 C-8.73914197 4.85747823 -10.8536077 5.94649552 -13 7 C-11.60415208 3.62670085 -10.07634389 1.95767338 -7 0 C-3.86650268 -1.04449911 -3.01031744 -0.93423645 0 0 Z " fill="#6C3C0D" transform="translate(30,9)"/>
<path d="M0 0 C0.33 0 0.66 0 1 0 C1.33 3.63 1.66 7.26 2 11 C3.32 11.33 4.64 11.66 6 12 C5.67 13.32 5.34 14.64 5 16 C2.17261357 13.44623161 0.4263403 11.83706273 0 8 C-0.06681953 5.32721867 -0.04458147 2.67488837 0 0 Z " fill="#5E2D0D" transform="translate(24,28)"/>
<path d="M0 0 C0.33 0 0.66 0 1 0 C1.66 3.63 2.32 7.26 3 11 C3.66 11 4.32 11 5 11 C5 12.65 5 14.3 5 16 C1.81900054 14.40950027 1.28245539 12.26443191 0 9 C-0.24096629 5.98054484 -0.18129181 3.02153016 0 0 Z " fill="#764011" transform="translate(24,19)"/>
<path d="M0 0 C2.27700057 2.27700057 2.52101692 3.41313098 3.1875 6.5 C3.36667969 7.2940625 3.54585938 8.088125 3.73046875 8.90625 C4 11 4 11 3 13 C2.34 13 1.68 13 1 13 C0.1276588 10.00519083 -0.10829766 7.36424089 -0.0625 4.25 C-0.05347656 3.45078125 -0.04445313 2.6515625 -0.03515625 1.828125 C-0.02355469 1.22484375 -0.01195313 0.6215625 0 0 Z " fill="#C4AE7E" transform="translate(68,17)"/>
<path d="M0 0 C0 1.32 0 2.64 0 4 C-0.99 4 -1.98 4 -3 4 C-3 4.66 -3 5.32 -3 6 C-5.21736634 4.89131683 -7.03617993 3.50559539 -9 2 C-3.375 0 -3.375 0 0 0 Z " fill="#783606" transform="translate(46,62)"/>
<path d="M0 0 C2.97 0.495 2.97 0.495 6 1 C5.67 1.99 5.34 2.98 5 4 C3.34561387 4.69658363 1.67745682 5.36096883 0 6 C-1.77277259 7.52007842 -1.77277259 7.52007842 -3 9 C-2.30058404 5.85262818 -1.23921302 2.97411124 0 0 Z " fill="#935918" transform="translate(56,41)"/>
<path d="M0 0 C2.31 0.33 4.62 0.66 7 1 C7 1.33 7 1.66 7 2 C8.65 2.33 10.3 2.66 12 3 C9.31920844 4.75282525 8.13111361 5.01311136 4.875 4.6875 C2 4 2 4 0 3 C0 2.01 0 1.02 0 0 Z " fill="#75451F" transform="translate(21,66)"/>
<path d="M0 0 C0.66 0.33 1.32 0.66 2 1 C1.67 2.32 1.34 3.64 1 5 C0.34 5 -0.32 5 -1 5 C-1 6.98 -1 8.96 -1 11 C-1.99 11.495 -1.99 11.495 -3 12 C-3.33 9.36 -3.66 6.72 -4 4 C-3.34 4 -2.68 4 -2 4 C-1.34 2.68 -0.68 1.36 0 0 Z " fill="#F7F6C3" transform="translate(6,18)"/>
<path d="M0 0 C0.5775 0.680625 1.155 1.36125 1.75 2.0625 C-5 3.1875 -5 3.1875 -7.25 2.0625 C-6.25 -0.9375 -6.25 -0.9375 -4.4375 -1.875 C-2.25 -1.9375 -2.25 -1.9375 0 0 Z " fill="#E7D25C" transform="translate(56.25,7.9375)"/>
<path d="M0 0 C1.32 0.33 2.64 0.66 4 1 C4.103125 1.598125 4.20625 2.19625 4.3125 2.8125 C5.08876455 5.28243264 6.07088921 6.32251235 8 8 C7.01 8.495 7.01 8.495 6 9 C6 8.34 6 7.68 6 7 C5.38125 6.71125 4.7625 6.4225 4.125 6.125 C2 5 2 5 0 3 C0 2.01 0 1.02 0 0 Z " fill="#A5825D" transform="translate(7,55)"/>
<path d="M0 0 C0.33 0 0.66 0 1 0 C1 1.98 1 3.96 1 6 C1.66 6.33 2.32 6.66 3 7 C3 7.99 3 8.98 3 10 C1.02 10 -0.96 10 -3 10 C-3 9.34 -3 8.68 -3 8 C-2.34 7.67 -1.68 7.34 -1 7 C-0.59270772 4.67843403 -0.25561323 2.3431213 0 0 Z " fill="#391908" transform="translate(46,39)"/>
<path d="M0 0 C0.99 0.99 1.98 1.98 3 3 C2.67 3.99 2.34 4.98 2 6 C1.34 6 0.68 6 0 6 C0 6.66 0 7.32 0 8 C-0.66 8 -1.32 8 -2 8 C-2.125 5.125 -2.125 5.125 -2 2 C-1.34 1.34 -0.68 0.68 0 0 Z " fill="#D6B839" transform="translate(56,18)"/>
<path d="M0 0 C0.99 0.33 1.98 0.66 3 1 C3 3.64 3 6.28 3 9 C1.33333333 7.33333333 -0.33333333 5.66666667 -2 4 C-1.34 2.68 -0.68 1.36 0 0 Z " fill="#FAF4D2" transform="translate(19,15)"/>
<path d="M0 0 C0.66 0 1.32 0 2 0 C1.67 1.65 1.34 3.3 1 5 C2.65 5 4.3 5 6 5 C5.34 6.65 4.68 8.3 4 10 C3.67 9.34 3.34 8.68 3 8 C2.34 7.67 1.68 7.34 1 7 C0 6 0 6 -0.0625 2.9375 C-0.041875 1.968125 -0.02125 0.99875 0 0 Z " fill="#472211" transform="translate(47,39)"/>
<path d="M0 0 C-3.26545761 1.88391785 -6.28111761 2.49287967 -10 3 C-10 4.65 -10 6.3 -10 8 C-10.33 8 -10.66 8 -11 8 C-11 6.02 -11 4.04 -11 2 C-6.89657963 -0.38570952 -4.61380251 -1.49270081 0 0 Z " fill="#E8DC5D" transform="translate(43,31)"/>
<path d="M0 0 C0.66 0.99 1.32 1.98 2 3 C0.02 5.64 -1.96 8.28 -4 11 C-5 8 -5 8 -4.00390625 5.95703125 C-3.52824219 5.24933594 -3.05257812 4.54164062 -2.5625 3.8125 C-2.08941406 3.09707031 -1.61632812 2.38164063 -1.12890625 1.64453125 C-0.75636719 1.10183594 -0.38382812 0.55914062 0 0 Z " fill="#E2CEB4" transform="translate(66,49)"/>
<path d="M0 0 C1.4606285 2.64738916 2 3.89448334 2 7 C-0.64 7 -3.28 7 -6 7 C-4.68 6.67 -3.36 6.34 -2 6 C-2 4.68 -2 3.36 -2 2 C-1.34 2 -0.68 2 0 2 C0 1.34 0 0.68 0 0 Z " fill="#592E12" transform="translate(29,47)"/>
<path d="M0 0 C0.99 0 1.98 0 3 0 C3 2.31 3 4.62 3 7 C2.01 7.33 1.02 7.66 0 8 C-0.98120464 4.94736336 -0.98120464 3.05263664 0 0 Z " fill="#8D5008" transform="translate(65,34)"/>
<path d="M0 0 C2.4375 0.375 2.4375 0.375 5 1 C6.26237731 3.52475462 6.09856404 5.31200466 6.0625 8.125 C6.05347656 9.03507812 6.04445313 9.94515625 6.03515625 10.8828125 C6.02355469 11.58148438 6.01195312 12.28015625 6 13 C5.67 13 5.34 13 5 13 C4.97421875 12.39671875 4.9484375 11.7934375 4.921875 11.171875 C4.59668017 5.89464661 4.59668017 5.89464661 1.9375 1.4375 C1.298125 0.963125 0.65875 0.48875 0 0 Z " fill="#E7D692" transform="translate(40,27)"/>
<path d="M0 0 C1.65 0.33 3.3 0.66 5 1 C5 1.99 5 2.98 5 4 C4.34 4 3.68 4 3 4 C1.66216607 4.31478446 0.32796291 4.64587656 -1 5 C-0.67 3.35 -0.34 1.7 0 0 Z " fill="#C49E49" transform="translate(62,13)"/>
<path d="M0 0 C6.0546875 -0.1953125 6.0546875 -0.1953125 8 0 C8.66 0.66 9.32 1.32 10 2 C6.7 2.33 3.4 2.66 0 3 C0 2.01 0 1.02 0 0 Z " fill="#7A4E20" transform="translate(28,7)"/>
<path d="M0 0 C4.03520597 1.58962659 8.01811282 3.28232318 12 5 C8.98990772 6.27350058 7.99218495 5.99687398 4.875 4.75 C2 3 2 3 0 0 Z " fill="#712901" transform="translate(18,55)"/>
<path d="M0 0 C4.27343092 -0.36629408 6.48812804 0.59185923 10 3 C8.375 3.6875 8.375 3.6875 6 4 C2.75 2.5625 2.75 2.5625 0 1 C0 0.67 0 0.34 0 0 Z " fill="#BAB176" transform="translate(47,2)"/>
<path d="M0 0 C1.61949011 2.57213134 2.04408751 3.67669159 1.625 6.75 C1.41875 7.4925 1.2125 8.235 1 9 C-0.32 8.34 -1.64 7.68 -3 7 C-2.67 6.34 -2.34 5.68 -2 5 C-1.32650839 3.33607955 -0.6590841 1.66967972 0 0 Z " fill="#C28125" transform="translate(9,45)"/>
<path d="M0 0 C0.99 0.33 1.98 0.66 3 1 C2.19185349 2.33597652 1.37836819 3.668725 0.5625 5 C0.11003906 5.7425 -0.34242187 6.485 -0.80859375 7.25 C-1.20175781 7.8275 -1.59492188 8.405 -2 9 C-2.33 9 -2.66 9 -3 9 C-3 7.35 -3 5.7 -3 4 C-2.34 4 -1.68 4 -1 4 C-0.67 2.68 -0.34 1.36 0 0 Z " fill="#F0DC94" transform="translate(12,16)"/>
<path d="M0 0 C0.66 0 1.32 0 2 0 C2 1.65 2 3.3 2 5 C0.68 5 -0.64 5 -2 5 C-1.125 1.125 -1.125 1.125 0 0 Z " fill="#D8AB1F" transform="translate(60,12)"/>
<path d="M0 0 C-2.31 1.65 -4.62 3.3 -7 5 C-7.33 4.34 -7.66 3.68 -8 3 C-5.45189726 -0.82215411 -4.39145359 -1.46381786 0 0 Z " fill="#F3E8A3" transform="translate(23,10)"/>
<path d="M0 0 C0.99 0.66 1.98 1.32 3 2 C3 2.99 3 3.98 3 5 C1.02 4.34 -0.96 3.68 -3 3 C-2 1 -2 1 0 0 Z " fill="#A27B4F" transform="translate(18,63)"/>
<path d="M0 0 C0 0.66 0 1.32 0 2 C-2.90548882 4.04169485 -4.40142046 5 -8 5 C-7.67 4.01 -7.34 3.02 -7 2 C-4.56723614 0.81480735 -2.71982714 0 0 0 Z " fill="#D7BD32" transform="translate(41,36)"/>
<path d="M0 0 C0.99 0.495 0.99 0.495 2 1 C2.625 3.5625 2.625 3.5625 3 6 C2.34 6 1.68 6 1 6 C0.67 7.32 0.34 8.64 0 10 C0 6.7 0 3.4 0 0 Z " fill="#9C5F1C" transform="translate(64,28)"/>
<path d="M0 0 C0.33 0 0.66 0 1 0 C1 1.65 1 3.3 1 5 C1.99 5.33 2.98 5.66 4 6 C3.67 6.66 3.34 7.32 3 8 C2.01 8 1.02 8 0 8 C-0.38063221 5.6739143 -0.71269945 3.33944736 -1 1 C-0.67 0.67 -0.34 0.34 0 0 Z " fill="#DED990" transform="translate(2,25)"/>
<path d="M0 0 C2.5 2.3125 2.5 2.3125 5 5 C5 5.99 5 6.98 5 8 C4.34 8 3.68 8 3 8 C0 2.25 0 2.25 0 0 Z " fill="#371404" transform="translate(49,22)"/>
<path d="M0 0 C1.485 0.99 1.485 0.99 3 2 C3.1875 5.125 3.1875 5.125 3 8 C2.01 7.67 1.02 7.34 0 7 C0 4.69 0 2.38 0 0 Z " fill="#A47932" transform="translate(65,15)"/>
<path d="M0 0 C1.5625 1.8125 1.5625 1.8125 3 4 C2.67 4.99 2.34 5.98 2 7 C1.731875 6.360625 1.46375 5.72125 1.1875 5.0625 C0.11332248 2.66868314 0.11332248 2.66868314 -3 2 C-2.01 1.34 -1.02 0.68 0 0 Z " fill="#E1C96B" transform="translate(50,18)"/>
<path d="M0 0 C1.98 0.66 3.96 1.32 6 2 C6 2.99 6 3.98 6 5 C3.69 4.01 1.38 3.02 -1 2 C-0.67 1.34 -0.34 0.68 0 0 Z " fill="#381705" transform="translate(41,17)"/>
<path d="M0 0 C1.98 0.495 1.98 0.495 4 1 C3.67 2.32 3.34 3.64 3 5 C1.68 4.67 0.36 4.34 -1 4 C-0.67 2.68 -0.34 1.36 0 0 Z " fill="#FCFAAF" transform="translate(37,11)"/>
</svg>
