<?xml version="1.0" encoding="UTF-8"?>
<svg version="1.1" xmlns="http://www.w3.org/2000/svg" width="400" height="400">
<path d="M0 0 C132 0 264 0 400 0 C400 132 400 264 400 400 C268 400 136 400 0 400 C0 268 0 136 0 0 Z " fill="#FCFCFC" transform="translate(0,0)"/>
<path d="M0 0 C1.70780419 0.73820452 3.41617406 1.47510126 5.125 2.2109375 C6.05054688 2.61151367 6.97609375 3.01208984 7.9296875 3.42480469 C13.26417142 5.71177011 18.63399945 7.91325445 24 10.125 C26.4831886 11.15076295 28.96627592 12.17676762 31.44921875 13.203125 C32.10427902 13.47381805 32.75933929 13.74451111 33.43424988 14.02340698 C38.10241374 15.95299372 42.76883463 17.88675287 47.43415833 19.82319641 C49.20445868 20.55774492 50.97503954 21.29161774 52.74589539 22.02482605 C57.22145641 23.8788666 61.6918479 25.74378829 66.15307617 27.63208008 C76.94964313 32.18486095 76.94964313 32.18486095 88.03125 35.96484375 C101.79365418 40.21984903 101.79365418 40.21984903 105.83984375 46.96875 C108.20685054 51.79121536 109.88516358 56.81342906 111.56494141 61.90820312 C113.88095386 68.5895063 116.68402007 75.07324405 119.41055298 81.59524536 C121.14691629 85.76688259 122.84869399 89.95259348 124.5546875 94.13671875 C129.01968198 105.06508236 133.53703112 115.97156738 138.0625 126.875 C138.59920822 128.16854401 138.59920822 128.16854401 139.14675903 129.48822021 C139.84168539 131.16300418 140.5369922 132.83763035 141.23271179 134.51208496 C141.88802337 136.0922328 142.54102147 137.67334246 143.19148254 139.25549316 C144.58583368 142.6390372 146.01191613 145.98520132 147.54150391 149.31103516 C148.01894043 150.35952637 148.49637695 151.40801758 148.98828125 152.48828125 C149.40505127 153.36266846 149.82182129 154.23705566 150.2512207 155.13793945 C151.09809446 158.59934948 150.23205752 160.42878495 148.875 163.6875 C148.49939941 164.63890869 148.12379883 165.59031738 147.73681641 166.57055664 C147.32093262 167.56949951 146.90504883 168.56844238 146.4765625 169.59765625 C145.76693359 171.30695313 145.76693359 171.30695313 145.04296875 173.05078125 C144.52866247 174.28386111 144.01433908 175.51693382 143.5 176.75 C142.96201854 178.04417897 142.42426227 179.33845157 141.88671875 180.6328125 C140.77072745 183.31953618 139.65377211 186.005856 138.53613281 188.69189453 C135.97334958 194.85334103 133.42496188 201.02073826 130.875 207.1875 C129.87766163 209.59768003 128.88026558 212.00783619 127.8828125 214.41796875 C126.36904409 218.07616023 124.85547208 221.73443245 123.34277344 225.39306641 C123.08885834 226.00687668 122.83494324 226.62068695 122.57333374 227.25309753 C122.06165465 228.49140075 121.55092969 229.73009865 121.04116821 230.9691925 C119.77896018 234.0336129 118.4970867 237.0871963 117.18603516 240.13110352 C114.75300174 245.82461915 112.61397675 251.34381195 111.09375 257.3515625 C108.9016984 265.28635162 106.75395494 272.08009174 99.66503906 276.84521484 C91.42118914 281.31843731 82.40617013 284.15075 73.53369141 287.08984375 C66.77899284 289.35740092 60.24482734 292.1459506 53.68551636 294.91860962 C50.16934262 296.3990852 46.63861374 297.8439877 43.109375 299.29296875 C36.41813027 302.04849891 29.7303332 304.81233924 23.04443359 307.58081055 C20.59781261 308.59378453 18.15006782 309.60388433 15.70166016 310.61254883 C10.6182504 312.70869302 5.54477505 314.81773381 0.5078125 317.0234375 C-0.27907959 317.36318604 -1.06597168 317.70293457 -1.87670898 318.05297852 C-3.26717916 318.65541723 -4.65279833 319.26927558 -6.03149414 319.89819336 C-11.57249085 322.28081446 -15.17656858 321.39578097 -20.7355957 319.375 C-22.09331706 318.81895001 -23.44823465 318.25602139 -24.80078125 317.6875 C-25.91904045 317.2263681 -25.91904045 317.2263681 -27.05989075 316.75592041 C-29.52160606 315.73906756 -31.9795107 314.71332302 -34.4375 313.6875 C-36.17473575 312.9678649 -37.91220763 312.24879958 -39.64990234 311.53027344 C-44.22294705 309.6376662 -48.79287899 307.73765312 -53.36224365 305.83618164 C-57.83977387 303.97454199 -62.32030687 302.12016506 -66.80078125 300.265625 C-72.00290051 298.11230777 -77.20437776 295.95751657 -82.40234375 293.79418945 C-90.25873574 290.52535355 -98.12079616 287.27452658 -106.01171875 284.08984375 C-108.02407168 283.27343539 -110.03611323 282.45626501 -112.04803467 281.63879395 C-113.87886059 280.89870429 -115.7140285 280.16938411 -117.54931641 279.44042969 C-118.6326123 278.99989258 -119.7159082 278.55935547 -120.83203125 278.10546875 C-121.7650708 277.73188232 -122.69811035 277.3582959 -123.65942383 276.97338867 C-129.0750416 274.14894479 -130.92716691 270.43289144 -133.15625 264.87890625 C-133.42861481 264.20896637 -133.70097961 263.53902649 -133.9815979 262.8487854 C-134.87205792 260.65282979 -135.74838175 258.45151325 -136.625 256.25 C-137.24744768 254.70895158 -137.87099702 253.16834772 -138.49560547 251.62817383 C-139.76776943 248.48910219 -141.03542824 245.34827066 -142.29980469 242.20605469 C-144.90458336 235.74353552 -147.57714567 229.30961634 -150.25 222.875 C-151.22677313 220.51571219 -152.20333583 218.15633725 -153.1796875 215.796875 C-155.46482286 210.27892273 -157.75388135 204.76260832 -160.04417419 199.24679565 C-162.29186849 193.8310692 -164.52470771 188.40926349 -166.75732422 182.98730469 C-168.05263678 179.86209144 -169.36907631 176.74666956 -170.69140625 173.6328125 C-171.44048799 171.83870187 -172.18921246 170.04444202 -172.9375 168.25 C-173.45328613 167.06168579 -173.45328613 167.06168579 -173.97949219 165.84936523 C-174.28145508 165.11661377 -174.58341797 164.3838623 -174.89453125 163.62890625 C-175.29055542 162.69606812 -175.29055542 162.69606812 -175.69458008 161.74438477 C-176.8290561 156.32296648 -174.31880748 151.28914204 -172.1953125 146.40625 C-171.74231529 145.34165558 -171.74231529 145.34165558 -171.28016663 144.2555542 C-170.62211898 142.71056646 -169.96118346 141.16680625 -169.29769897 139.62414551 C-167.47516564 135.38545885 -165.67459151 131.13743728 -163.87109375 126.890625 C-163.29700523 125.5410672 -163.29700523 125.5410672 -162.71131897 124.16424561 C-158.58171404 114.44158775 -154.55729535 104.67618777 -150.53756714 94.90771484 C-149.31682729 91.94799167 -148.08931548 88.99116828 -146.85961914 86.03515625 C-142.11666925 74.65097233 -142.11666925 74.65097233 -137.63548279 63.16229248 C-136.92751817 61.28042541 -136.20203715 59.40517634 -135.47583008 57.53027344 C-134.65710275 55.40595761 -133.86927559 53.26927248 -133.1237793 51.11816406 C-131.03888651 45.80470328 -129.02156925 43.14908867 -123.9140625 40.48828125 C-121.66632049 39.51847898 -119.40134549 38.58811745 -117.125 37.6875 C-115.80162353 37.13065068 -114.47965674 36.57044228 -113.15893555 36.00732422 C-109.41848558 34.4248324 -105.66020782 32.89008181 -101.89474487 31.36819458 C-98.49103712 29.99244887 -95.09162895 28.60622115 -91.69197083 27.22050476 C-89.90326062 26.49142777 -88.11434843 25.76284617 -86.32524109 25.03474426 C-77.26592122 21.34546457 -68.23087671 17.59844262 -59.19827271 13.84432983 C-56.58228351 12.75821379 -53.96506467 11.67511792 -51.34741211 10.59301758 C-44.1812947 7.62913801 -37.02148624 4.65729667 -29.90234375 1.58203125 C-28.87890869 1.14560303 -27.85547363 0.7091748 -26.80102539 0.25952148 C-25.01947594 -0.50182576 -23.24319115 -1.27570467 -21.47436523 -2.06616211 C-13.45035834 -5.46819078 -7.62814131 -3.38889557 0 0 Z " fill="#010101" transform="translate(213.125,41.3125)"/>
<path d="M0 0 C4.8694193 4.24758776 8.04211815 8.50768968 9 15 C9.13751677 19.33941804 9.11746218 23.66042506 9 28 C9.71542969 27.95359375 10.43085938 27.9071875 11.16796875 27.859375 C27.86358389 27.25461792 41.05384443 34.45233536 53.6875 44.75390625 C58.3592167 49.29146892 60.09410858 53.85917754 60.3125 60.25 C60.22868303 65.91230196 58.45642315 70.41221732 54.5390625 74.5390625 C48.37710524 79.88776651 43.57531214 80.55300906 35.54296875 80.453125 C31.13165941 79.88894431 28.63917057 78.50441746 25.2578125 75.703125 C17.53361104 69.87656473 11.19827132 69.40539793 1.7421875 69.46875 C0.48036652 69.4649231 -0.78145447 69.46109619 -2.08151245 69.45715332 C-4.73964206 69.45443962 -7.39628382 69.45972456 -10.05419922 69.47851562 C-13.4482109 69.5013517 -16.84096029 69.48813608 -20.23492622 69.46422577 C-23.49259942 69.44624483 -26.75012281 69.45885494 -30.0078125 69.46875 C-31.22042755 69.46065308 -32.4330426 69.45255615 -33.68240356 69.44421387 C-42.14934929 69.53324418 -42.14934929 69.53324418 -49 74 C-51.77214654 78.805054 -53.15946371 83.52475472 -52 89 C-49.86580489 93.31920439 -47.49833895 96.1646978 -43 98 C-40.25195057 98.29926892 -40.25195057 98.29926892 -37.21606445 98.25537109 C-36.04997147 98.26233002 -34.88387848 98.26928894 -33.68244934 98.27645874 C-32.42212387 98.27546173 -31.1617984 98.27446472 -29.86328125 98.2734375 C-27.86339823 98.28854304 -25.8635151 98.30367293 -23.86364269 98.32012367 C-18.95073439 98.35767919 -14.03779623 98.37496741 -9.12475586 98.38085938 C14.25567158 98.42146685 35.69824857 98.46041809 53.6484375 115.52734375 C65.40098009 127.88508371 70.58604818 141.72905231 70.27734375 158.66015625 C69.57335608 174.35452818 62.47926677 188.4397954 51 199 C37.75095464 208.9798004 25.40050772 212.45627379 9 212 C9.04640625 212.82242188 9.0928125 213.64484375 9.140625 214.4921875 C9.41101952 222.85510381 9.04630408 230.28747636 3.38671875 236.87890625 C-2.20385303 242.02322396 -7.95829802 243.5411654 -15.46875 243.3828125 C-20.93717298 242.55579791 -24.65931212 239.4112504 -28.375 235.5 C-31.78210286 230.25830329 -32.26837708 225.85822876 -32.125 219.6875 C-32.11597656 218.94693359 -32.10695312 218.20636719 -32.09765625 217.44335938 C-32.07424213 215.62876533 -32.03837615 213.81433929 -32 212 C-32.62342285 212.02094727 -33.2468457 212.04189453 -33.88916016 212.06347656 C-55.4980818 212.69259203 -71.50127797 209.94484919 -88.16015625 194.9921875 C-93.01055393 189.74016454 -94.29662109 185.05363598 -94.140625 178.0078125 C-93.65618801 171.09112875 -89.94519848 166.55320104 -85 162 C-79.4285296 158.75841722 -74.18323855 158.03833597 -67.9609375 159.46875 C-63.34692097 160.96518779 -60.13467647 163.26473822 -56.640625 166.59765625 C-52.67972136 169.98328579 -49.3707121 170.25822113 -44.21533203 170.29052734 C-43.54163574 170.29724457 -42.86793945 170.30396179 -42.17382812 170.31088257 C-39.95174741 170.32984473 -37.72996904 170.33378583 -35.5078125 170.3359375 C-33.95848467 170.3423668 -32.40915806 170.34909526 -30.85983276 170.35610962 C-27.61339504 170.36807799 -24.36706369 170.37179092 -21.12060547 170.37060547 C-16.96883447 170.37040233 -12.81774837 170.39770057 -8.6661396 170.43214989 C-5.46614474 170.45443209 -2.26631434 170.45844261 0.93375015 170.45738602 C2.46391281 170.45974014 3.99408012 170.46855312 5.52416611 170.48405075 C7.66877382 170.50373846 9.81190946 170.49786362 11.95654297 170.48583984 C13.17469696 170.48868988 14.39285095 170.49153992 15.6479187 170.49447632 C19.68478827 169.89898467 21.83323599 168.52871083 25 166 C27.86649697 161.89135434 28.60083641 158.16232575 28.41015625 153.24609375 C27.70755536 149.39851743 25.97375171 146.52278717 23 144 C16.70872248 140.32681051 10.5899636 140.59950253 3.4343071 140.65044022 C1.29595839 140.66432204 -0.84147674 140.65765603 -2.97982788 140.64559937 C-9.05513721 140.61485186 -15.13022806 140.61936594 -21.20556641 140.63964844 C-24.93568874 140.6506799 -28.66512542 140.63713484 -32.39515305 140.60975266 C-33.80227623 140.60437717 -35.20947083 140.6082063 -36.61653519 140.62215042 C-52.74715874 140.78006497 -66.50468862 135.27968645 -78.3125 124.1875 C-90.2611995 111.48286237 -94.68719461 95.56266986 -94.3359375 78.48828125 C-93.60717046 64.45801004 -86.14054082 51.09892722 -75.98046875 41.58984375 C-65.53583556 33.205296 -54.11102439 27.55271122 -40.5625 27.875 C-39.46518555 27.88853516 -39.46518555 27.88853516 -38.34570312 27.90234375 C-36.56365702 27.92563847 -34.78178241 27.9614981 -33 28 C-33.02320313 27.14277344 -33.04640625 26.28554687 -33.0703125 25.40234375 C-33.2233983 15.70326463 -32.81367677 9.02610189 -25.98828125 1.734375 C-18.77309686 -4.55942042 -8.09970627 -4.85012351 0 0 Z " fill="#FCFCFC" transform="translate(212,78)"/>
<path d="M0 0 C64.68 0 129.36 0 196 0 C193.44713872 1.70190752 191.28444963 2.80283156 188.4765625 3.9609375 C187.55335205 4.34362793 186.6301416 4.72631836 185.67895508 5.12060547 C184.6711499 5.53455566 183.66334473 5.94850586 182.625 6.375 C181.56498779 6.81344238 180.50497559 7.25188477 179.4128418 7.70361328 C177.12686146 8.64881494 174.84029958 9.59261108 172.55322266 10.53515625 C169.02750191 11.98866212 165.50368355 13.44668135 161.98046875 14.90625 C153.47730669 18.42848031 144.97195711 21.94540982 136.46582031 25.46044922 C122.4459884 31.25397898 108.43166149 37.06053343 94.42703247 42.89071655 C92.87885143 43.53517756 91.33057621 44.17941235 89.78219604 44.82339478 C86.20116713 46.31300657 82.62214601 47.8069801 79.04736328 49.31152344 C76.36423871 50.43879191 73.67069683 51.53228494 70.96435547 52.60253906 C70.32598251 52.8609256 69.68760956 53.11931213 69.02989197 53.38552856 C67.30792761 54.08248872 65.58078051 54.76660582 63.85327148 55.44970703 C58.92164675 58.12924986 56.7407458 62.05217135 54.6171875 67.1015625 C54.18132324 68.12733398 53.74545898 69.15310547 53.29638672 70.20996094 C52.8273291 71.33692383 52.35827148 72.46388672 51.875 73.625 C51.36855957 74.82415039 50.86211914 76.02330078 50.34033203 77.25878906 C48.8806477 80.71700161 47.4321289 84.17980392 45.98535156 87.64343262 C44.56518127 91.03991272 43.13927141 94.43397617 41.71386719 97.82826233 C34.70706478 114.51538348 27.73610366 131.21744012 20.78710938 147.92871094 C14.24444722 163.64127006 7.61199852 179.31652681 1 195 C0.67 195 0.34 195 0 195 C0 130.65 0 66.3 0 0 Z " fill="#000000" transform="translate(0,0)"/>
<path d="M0 0 C0.33 0 0.66 0 1 0 C1 64.35 1 128.7 1 195 C-63.68 195 -128.36 195 -195 195 C-192.56796907 193.37864605 -190.56516273 192.31047495 -187.90380859 191.20678711 C-187.07375809 190.86072418 -186.24370758 190.51466125 -185.38850403 190.15811157 C-184.48428207 189.78495819 -183.58006012 189.41180481 -182.6484375 189.02734375 C-181.22436836 188.43522598 -181.22436836 188.43522598 -179.77153015 187.83114624 C-176.64060956 186.53021515 -173.50782184 185.23384517 -170.375 183.9375 C-168.18795397 183.02981973 -166.00102488 182.12185764 -163.81420898 181.21362305 C-158.25850529 178.9070648 -152.70128602 176.60418313 -147.14361572 174.30236816 C-143.33632633 172.72504672 -139.52987018 171.14572403 -135.72361755 169.56590271 C-133.16279905 168.50301236 -130.6018012 167.44055514 -128.04077148 166.37817383 C-124.72861941 165.00412987 -121.41700591 163.62879831 -118.10571289 162.25268555 C-110.22981876 158.98193965 -102.34768604 155.72839167 -94.44667053 152.51872253 C-90.64780143 150.97433565 -86.85220331 149.42200198 -83.05685425 147.86898804 C-81.2480316 147.13145537 -79.43761497 146.39781821 -77.6255188 145.66836548 C-75.1173326 144.65847483 -72.61491972 143.63535709 -70.11328125 142.609375 C-69.3777301 142.31735703 -68.64217896 142.02533905 -67.88433838 141.72447205 C-61.15788933 138.93730223 -56.25146168 135.64689337 -53.31468201 128.68630981 C-53.04970413 128.01123383 -52.78472626 127.33615784 -52.51171875 126.640625 C-52.21173477 125.91680634 -51.91175079 125.19298767 -51.60267639 124.44723511 C-50.61519626 122.05428748 -49.65159947 119.65245178 -48.6875 117.25 C-47.98698834 115.54083215 -47.28480507 113.83234857 -46.58105469 112.12451172 C-45.10924491 108.54634765 -43.64653414 104.96466434 -42.19091797 101.37988281 C-40.11053486 96.2615767 -38.00069378 91.15594908 -35.87890625 86.0546875 C-35.53974686 85.2391037 -35.20058746 84.4235199 -34.85115051 83.58322144 C-34.16294376 81.92844131 -33.47467559 80.27368673 -32.78634644 78.61895752 C-31.03272603 74.39888723 -29.2864506 70.17577866 -27.5390625 65.953125 C-22.41911761 53.58622605 -17.27283209 41.23031082 -12.125 28.875 C-11.68812866 27.82604553 -11.25125732 26.77709106 -10.80114746 25.6963501 C-9.55793867 22.71146118 -8.31421887 19.72678577 -7.0703125 16.7421875 C-6.70231537 15.85859558 -6.33431824 14.97500366 -5.95516968 14.06463623 C-3.99558293 9.36516446 -2.01466319 4.67613514 0 0 Z " fill="#000000" transform="translate(399,205)"/>
<path d="M0 0 C2.72617739 2.72617739 3.78377915 5.96121619 5.2109375 9.4765625 C5.69066513 10.64051041 5.69066513 10.64051041 6.18008423 11.82797241 C6.87941209 13.52634007 7.57644059 15.22565587 8.27148438 16.92578125 C9.78199361 20.62051358 11.30333318 24.31075712 12.8237915 28.00140381 C13.6327733 29.96555645 14.44115034 31.92995827 15.2489624 33.89459229 C18.14012671 40.92427087 21.05127211 47.94539494 23.9765625 54.9609375 C24.38989334 55.95220642 24.80322418 56.94347534 25.2290802 57.96478271 C27.32464488 62.98835167 29.4224633 68.01097551 31.52124023 73.03320312 C35.67843788 82.98773946 39.80557746 92.95295171 43.87109375 102.9453125 C45.02545816 105.77110567 46.1806631 108.5965536 47.33618164 111.421875 C48.06217445 113.2037842 48.7842747 114.987285 49.50219727 116.77246094 C50.49057151 119.22993893 51.49195573 121.68174222 52.49609375 124.1328125 C52.77859482 124.84615753 53.06109589 125.55950256 53.35215759 126.29446411 C56.45455437 133.79027821 60.13185662 138.12913372 67.84375 141.33984375 C68.51223465 141.62323608 69.1807193 141.90662842 69.86946106 142.1986084 C72.07324239 143.12777827 74.28611891 144.03268871 76.5 144.9375 C78.06977935 145.59322749 79.6390244 146.2502354 81.20776367 146.90844727 C86.12794913 148.96499622 91.06193395 150.98682348 96 153 C97.16405365 153.47493896 97.16405365 153.47493896 98.35162354 153.95947266 C105.20064803 156.75171839 112.05537153 159.52975018 118.91674805 162.29150391 C134.18751744 168.44306941 149.35030893 174.84379994 164.51158142 181.25944519 C171.45618677 184.19678134 178.41305283 187.10401267 185.375 190 C186.37378174 190.41548096 187.37256348 190.83096191 188.40161133 191.2590332 C190.60081403 192.17331747 192.80023582 193.08706766 195 194 C195 194.33 195 194.66 195 195 C130.65 195 66.3 195 0 195 C0 130.65 0 66.3 0 0 Z " fill="#000000" transform="translate(0,205)"/>
<path d="M0 0 C64.68 0 129.36 0 196 0 C196 64.35 196 128.7 196 195 C193.6299341 191.83991214 192.40719934 189.93027347 191.046875 186.40625 C190.50111816 185.01321655 190.50111816 185.01321655 189.94433594 183.59204102 C189.55020508 182.57166748 189.15607422 181.55129395 188.75 180.5 C187.85658639 178.22691205 186.96059754 175.95483516 186.0625 173.68359375 C185.82215027 173.07547348 185.58180054 172.46735321 185.33416748 171.84080505 C182.23959111 164.04001412 178.98986796 156.30376643 175.75 148.5625 C174.45394356 145.46244154 173.15848219 142.36213473 171.86328125 139.26171875 C171.37931633 138.10340546 171.37931633 138.10340546 170.88557434 136.92169189 C167.83487947 129.61495115 164.81346536 122.29632535 161.80166626 114.97348022 C160.94181064 112.88546766 160.07902906 110.79868545 159.21557617 108.7121582 C156.49623388 102.13171501 153.80758686 95.54211243 151.20072937 88.91616821 C149.96411434 85.77815377 148.71302985 82.64600129 147.46072388 79.51422119 C146.86969425 78.02436789 146.28572534 76.5316909 145.70944214 75.03607178 C144.90874838 72.95920323 144.08401418 70.89337951 143.25390625 68.828125 C142.79314697 67.6515332 142.3323877 66.47494141 141.85766602 65.26269531 C137.69677083 57.95474378 131.36146339 54.87488301 123.765625 51.890625 C122.87185654 51.5265152 121.97808807 51.1624054 121.05723572 50.78726196 C118.1262499 49.59601928 115.18821182 48.42329198 112.25 47.25 C110.18076726 46.4118708 108.11217273 45.57216441 106.04418945 44.73095703 C102.8533728 43.43327173 99.66217903 42.13661442 96.46894836 40.84487915 C86.00397713 36.61090596 75.59315711 32.2522466 65.1875 27.875 C61.68152415 26.40236977 58.17494407 24.93118589 54.66796875 23.4609375 C53.80305817 23.09830811 52.93814758 22.73567871 52.04702759 22.36206055 C45.47322296 19.60924898 38.88892366 16.88235974 32.30078125 14.1640625 C31.34672897 13.7700827 30.3926767 13.37610291 29.40971375 12.97018433 C24.82581404 11.0774859 20.24061556 9.18805853 15.65307617 7.30419922 C14.01866247 6.63001608 12.3843008 5.95570677 10.75 5.28125 C10.0053096 4.97692047 9.2606192 4.67259094 8.49336243 4.35903931 C5.44130946 3.09624022 2.75843178 1.83895452 0 0 Z " fill="#000000" transform="translate(204,0)"/>
</svg>
