<?xml version="1.0" encoding="UTF-8"?>
<svg version="1.1" xmlns="http://www.w3.org/2000/svg" width="490" height="490">
<path d="M0 0 C0.74158356 0.30140396 1.48316711 0.60280792 2.2472229 0.91334534 C4.6621907 1.89697154 7.07331367 2.88965357 9.484375 3.8828125 C11.173194 4.57335482 12.86216026 5.26353713 14.55126953 5.95336914 C24.78196939 10.1396259 34.97843131 14.40328105 45.14599609 18.74072266 C54.76438593 22.83520846 64.4342165 26.79995334 74.109375 30.7578125 C83.96347512 34.79000335 93.81585827 38.82570834 103.6484375 42.91015625 C104.7855719 43.38082016 104.7855719 43.38082016 105.94567871 43.86099243 C109.70960329 45.42217371 113.46135233 47.00535515 117.19628906 48.63476562 C124.30867163 51.71400266 131.23277854 54.38346604 138.7421875 56.32421875 C148.6056992 59.03619025 158.29656666 61.95052455 164.00488281 71.03662109 C169.75170122 81.40729656 173.3732632 92.80287471 177.14208984 103.99853516 C180.18630811 112.92519431 183.90784528 121.56981103 187.58221436 130.25091553 C189.60915057 135.06001291 191.58935953 139.88826625 193.57421875 144.71484375 C197.64075161 154.57825963 201.7225343 164.43530882 205.81057739 174.28982544 C206.84928075 176.79595759 207.88573945 179.30300714 208.92163086 181.81030273 C212.20304377 189.74605729 215.50735618 197.67055005 218.87490845 205.57020569 C220.48949411 209.36127487 222.09318211 213.1569088 223.69598389 216.95297241 C224.46465785 218.76488708 225.23869523 220.57453681 226.01837158 222.38174438 C227.09606126 224.88051413 228.15528221 227.38638978 229.2109375 229.89453125 C229.69542358 230.99787308 229.69542358 230.99787308 230.18969727 232.12350464 C233.14672373 239.24860263 231.5045569 243.76153786 228.70928955 250.5266571 C228.35920837 251.35575089 228.0091272 252.18484467 227.6484375 253.0390625 C227.27998718 253.92604324 226.91153687 254.81302399 226.53192139 255.72688293 C225.3135481 258.65631724 224.08640918 261.58199664 222.859375 264.5078125 C221.99884512 266.57288316 221.13899284 268.63823629 220.27978516 270.70385742 C218.49186306 275.00076607 216.70101695 279.29643878 214.90820312 283.59130859 C211.17654117 292.53769003 207.48312898 301.49981069 203.78839111 310.46148682 C199.16275457 321.67752399 194.52833423 332.88996873 189.88493347 344.09866333 C189.15716821 345.85681546 188.43068682 347.61549961 187.70552063 349.37472534 C185.93572889 353.66235763 184.14346305 357.9374446 182.29858398 362.19335938 C178.79665459 370.33536631 175.77544217 378.28407161 173.52734375 386.86328125 C170.35096777 398.26991656 167.09359591 409.62190994 156.54833984 416.22167969 C144.87386372 422.66269166 132.08716495 426.7477937 119.46533203 430.89453125 C111.05261457 433.68825188 102.94127164 437.13826319 94.79901123 440.62832642 C90.62634371 442.40767725 86.4314133 444.13285155 82.23828125 445.86328125 C80.57427519 446.55231491 78.91037537 447.2416052 77.24658203 447.93115234 C76.42168274 448.2728949 75.59678345 448.61463745 74.74688721 448.96673584 C69.64387912 451.08120223 64.54129868 453.19670083 59.43917847 455.31330872 C55.18882758 457.07641966 50.9376699 458.83752312 46.68457031 460.59399414 C38.65691325 463.9118553 30.6399396 467.25113116 22.64932251 470.65740967 C18.86411178 472.26960615 15.07435088 473.87094177 11.28417969 475.47143555 C9.4744115 476.23927958 7.66690145 477.01247012 5.86181641 477.79125977 C3.36259221 478.86914086 0.85625758 479.9285412 -1.65234375 480.984375 C-2.38793015 481.30737579 -3.12351654 481.63037659 -3.88139343 481.96316528 C-11.00644848 484.92017783 -15.51939597 483.27797555 -22.2844696 480.48272705 C-23.11356339 480.13264587 -23.94265717 479.7825647 -24.796875 479.421875 C-25.68385574 479.05342468 -26.57083649 478.68497437 -27.48469543 478.30535889 C-30.41412974 477.0869856 -33.33980914 475.85984668 -36.265625 474.6328125 C-38.33069566 473.77228262 -40.39604879 472.91243034 -42.46166992 472.05322266 C-46.75857857 470.26530056 -51.05425128 468.47445445 -55.34912109 466.68164062 C-64.29550253 462.94997867 -73.25762319 459.25656648 -82.21929932 455.56182861 C-93.43530209 450.93620626 -104.64756579 446.30145393 -115.85641479 441.65852356 C-117.61489024 440.9305399 -119.37377852 440.20355261 -121.13308716 439.47758484 C-125.41438577 437.70894358 -129.68620703 435.92234044 -133.94238281 434.09399414 C-142.12777159 430.59946777 -150.22501048 427.47859045 -158.76171875 424.94921875 C-182.65889376 417.57594787 -182.65889376 417.57594787 -188.81867981 407.23544312 C-193.31053211 398.67512795 -196.16806137 389.464641 -199.04052734 380.26611328 C-201.56172202 372.34647079 -204.90141662 364.76582046 -208.1729126 357.13394165 C-210.00381482 352.83843416 -211.77962595 348.52033826 -213.55859375 344.203125 C-213.91062866 343.35101944 -214.26266357 342.49891388 -214.62536621 341.62098694 C-218.61815558 331.95516876 -222.57820311 322.27592506 -226.53912354 312.59701538 C-233.38332762 295.87772618 -240.33192336 279.20223638 -247.29223633 262.53100586 C-247.70839706 261.5340419 -248.1245578 260.53707794 -248.55332947 259.50990295 C-249.33455727 257.63875464 -250.11616085 255.76776316 -250.89820862 253.8969574 C-251.57540498 252.27542169 -252.24854459 250.65218204 -252.91644287 249.02679443 C-253.59032759 247.42459271 -254.32437357 245.84771831 -255.07861328 244.28173828 C-256.75723 238.72571976 -253.88787659 233.35037508 -251.7734375 228.2421875 C-251.47216949 227.50092117 -251.17090149 226.75965485 -250.86050415 225.9959259 C-249.87676038 223.58062925 -248.88394347 221.16918547 -247.890625 218.7578125 C-247.19789224 217.06386377 -246.50551277 215.36977052 -245.81347656 213.67553711 C-241.6935095 203.60809919 -237.50121175 193.57272566 -233.23486328 183.56640625 C-228.66554237 172.82973262 -224.21549356 162.04442402 -219.765625 151.2578125 C-219.36425323 150.28506378 -218.96288147 149.31231506 -218.54934692 148.31008911 C-216.04920505 142.25024133 -213.55053168 136.18978882 -211.05230713 130.12915039 C-207.59961771 121.75333629 -204.14540363 113.37815249 -200.68920898 105.00378418 C-199.10743281 101.1699374 -197.52684574 97.33560364 -195.94937134 93.49998474 C-195.21875562 91.73544037 -194.48063251 89.97398282 -193.73446655 88.21595764 C-192.14694367 84.46530666 -190.64522972 80.76663642 -189.47314453 76.86401367 C-187.4122984 70.62989224 -185.56117191 66.85146074 -179.5546875 63.74256897 C-175.85879634 62.07525027 -172.07732307 60.69636319 -168.265625 59.3203125 C-166.57778875 58.66728982 -164.89203636 58.00885924 -163.20825195 57.34545898 C-159.612502 55.93428086 -156.00842537 54.54820192 -152.39697266 53.17773438 C-143.80681594 49.89587074 -135.33788873 46.31901597 -126.85238647 42.77761841 C-121.98533178 40.75088714 -117.10947885 38.74555427 -112.234375 36.73828125 C-101.4679893 32.30082596 -90.70922179 27.84514002 -79.953125 23.3828125 C-78.29093598 22.69335518 -76.62874524 22.00390204 -74.96655273 21.31445312 C-70.78056192 19.57805617 -66.59469887 17.8413514 -62.40887451 16.10455322 C-54.86128895 12.97289864 -47.31354309 9.84163084 -39.76553345 6.71099854 C-37.07559635 5.59518914 -34.38581638 4.4790016 -31.69604492 3.36279297 C-30.0577876 2.68324978 -28.41952302 2.00372409 -26.78125 1.32421875 C-25.67016624 0.86295845 -25.67016624 0.86295845 -24.53663635 0.39237976 C-22.61394736 -0.40484713 -20.68985199 -1.19867999 -18.765625 -1.9921875 C-17.89905273 -2.41121338 -17.03248047 -2.83023926 -16.13964844 -3.26196289 C-10.52792375 -4.98807031 -5.16894855 -2.13959379 0 0 Z " fill="#9E6935" transform="translate(256.765625,4.9921875)"/>
<path d="M0 0 C0.74158356 0.30140396 1.48316711 0.60280792 2.2472229 0.91334534 C4.6621907 1.89697154 7.07331367 2.88965357 9.484375 3.8828125 C11.173194 4.57335482 12.86216026 5.26353713 14.55126953 5.95336914 C24.78196939 10.1396259 34.97843131 14.40328105 45.14599609 18.74072266 C54.76438593 22.83520846 64.4342165 26.79995334 74.109375 30.7578125 C83.96347512 34.79000335 93.81585827 38.82570834 103.6484375 42.91015625 C104.7855719 43.38082016 104.7855719 43.38082016 105.94567871 43.86099243 C109.70960329 45.42217371 113.46135233 47.00535515 117.19628906 48.63476562 C124.30867163 51.71400266 131.23277854 54.38346604 138.7421875 56.32421875 C148.6056992 59.03619025 158.29656666 61.95052455 164.00488281 71.03662109 C169.75170122 81.40729656 173.3732632 92.80287471 177.14208984 103.99853516 C180.18630811 112.92519431 183.90784528 121.56981103 187.58221436 130.25091553 C189.60915057 135.06001291 191.58935953 139.88826625 193.57421875 144.71484375 C197.64075161 154.57825963 201.7225343 164.43530882 205.81057739 174.28982544 C206.84928075 176.79595759 207.88573945 179.30300714 208.92163086 181.81030273 C212.20304377 189.74605729 215.50735618 197.67055005 218.87490845 205.57020569 C220.48949411 209.36127487 222.09318211 213.1569088 223.69598389 216.95297241 C224.46465785 218.76488708 225.23869523 220.57453681 226.01837158 222.38174438 C227.09606126 224.88051413 228.15528221 227.38638978 229.2109375 229.89453125 C229.69542358 230.99787308 229.69542358 230.99787308 230.18969727 232.12350464 C233.14672373 239.24860263 231.5045569 243.76153786 228.70928955 250.5266571 C228.35920837 251.35575089 228.0091272 252.18484467 227.6484375 253.0390625 C227.27998718 253.92604324 226.91153687 254.81302399 226.53192139 255.72688293 C225.3135481 258.65631724 224.08640918 261.58199664 222.859375 264.5078125 C221.99884512 266.57288316 221.13899284 268.63823629 220.27978516 270.70385742 C218.49186306 275.00076607 216.70101695 279.29643878 214.90820312 283.59130859 C211.17654117 292.53769003 207.48312898 301.49981069 203.78839111 310.46148682 C199.16275457 321.67752399 194.52833423 332.88996873 189.88493347 344.09866333 C189.15716821 345.85681546 188.43068682 347.61549961 187.70552063 349.37472534 C185.93572889 353.66235763 184.14346305 357.9374446 182.29858398 362.19335938 C178.79665459 370.33536631 175.77544217 378.28407161 173.52734375 386.86328125 C170.35096777 398.26991656 167.09359591 409.62190994 156.54833984 416.22167969 C144.87386372 422.66269166 132.08716495 426.7477937 119.46533203 430.89453125 C111.05261457 433.68825188 102.94127164 437.13826319 94.79901123 440.62832642 C90.62634371 442.40767725 86.4314133 444.13285155 82.23828125 445.86328125 C80.57427519 446.55231491 78.91037537 447.2416052 77.24658203 447.93115234 C76.42168274 448.2728949 75.59678345 448.61463745 74.74688721 448.96673584 C69.64387912 451.08120223 64.54129868 453.19670083 59.43917847 455.31330872 C55.18882758 457.07641966 50.9376699 458.83752312 46.68457031 460.59399414 C38.65691325 463.9118553 30.6399396 467.25113116 22.64932251 470.65740967 C18.86411178 472.26960615 15.07435088 473.87094177 11.28417969 475.47143555 C9.4744115 476.23927958 7.66690145 477.01247012 5.86181641 477.79125977 C3.36259221 478.86914086 0.85625758 479.9285412 -1.65234375 480.984375 C-2.38793015 481.30737579 -3.12351654 481.63037659 -3.88139343 481.96316528 C-11.00644848 484.92017783 -15.51939597 483.27797555 -22.2844696 480.48272705 C-23.11356339 480.13264587 -23.94265717 479.7825647 -24.796875 479.421875 C-25.68385574 479.05342468 -26.57083649 478.68497437 -27.48469543 478.30535889 C-30.41412974 477.0869856 -33.33980914 475.85984668 -36.265625 474.6328125 C-38.33069566 473.77228262 -40.39604879 472.91243034 -42.46166992 472.05322266 C-46.75857857 470.26530056 -51.05425128 468.47445445 -55.34912109 466.68164062 C-64.29550253 462.94997867 -73.25762319 459.25656648 -82.21929932 455.56182861 C-93.43530209 450.93620626 -104.64756579 446.30145393 -115.85641479 441.65852356 C-117.61489024 440.9305399 -119.37377852 440.20355261 -121.13308716 439.47758484 C-125.41438577 437.70894358 -129.68620703 435.92234044 -133.94238281 434.09399414 C-142.12777159 430.59946777 -150.22501048 427.47859045 -158.76171875 424.94921875 C-182.65889376 417.57594787 -182.65889376 417.57594787 -188.81867981 407.23544312 C-193.31053211 398.67512795 -196.16806137 389.464641 -199.04052734 380.26611328 C-201.56172202 372.34647079 -204.90141662 364.76582046 -208.1729126 357.13394165 C-210.00381482 352.83843416 -211.77962595 348.52033826 -213.55859375 344.203125 C-213.91062866 343.35101944 -214.26266357 342.49891388 -214.62536621 341.62098694 C-218.61815558 331.95516876 -222.57820311 322.27592506 -226.53912354 312.59701538 C-233.38332762 295.87772618 -240.33192336 279.20223638 -247.29223633 262.53100586 C-247.70839706 261.5340419 -248.1245578 260.53707794 -248.55332947 259.50990295 C-249.33455727 257.63875464 -250.11616085 255.76776316 -250.89820862 253.8969574 C-251.57540498 252.27542169 -252.24854459 250.65218204 -252.91644287 249.02679443 C-253.59032759 247.42459271 -254.32437357 245.84771831 -255.07861328 244.28173828 C-256.75723 238.72571976 -253.88787659 233.35037508 -251.7734375 228.2421875 C-251.47216949 227.50092117 -251.17090149 226.75965485 -250.86050415 225.9959259 C-249.87676038 223.58062925 -248.88394347 221.16918547 -247.890625 218.7578125 C-247.19789224 217.06386377 -246.50551277 215.36977052 -245.81347656 213.67553711 C-241.6935095 203.60809919 -237.50121175 193.57272566 -233.23486328 183.56640625 C-228.66554237 172.82973262 -224.21549356 162.04442402 -219.765625 151.2578125 C-219.36425323 150.28506378 -218.96288147 149.31231506 -218.54934692 148.31008911 C-216.04920505 142.25024133 -213.55053168 136.18978882 -211.05230713 130.12915039 C-207.59961771 121.75333629 -204.14540363 113.37815249 -200.68920898 105.00378418 C-199.10743281 101.1699374 -197.52684574 97.33560364 -195.94937134 93.49998474 C-195.21875562 91.73544037 -194.48063251 89.97398282 -193.73446655 88.21595764 C-192.14694367 84.46530666 -190.64522972 80.76663642 -189.47314453 76.86401367 C-187.4122984 70.62989224 -185.56117191 66.85146074 -179.5546875 63.74256897 C-175.85879634 62.07525027 -172.07732307 60.69636319 -168.265625 59.3203125 C-166.57778875 58.66728982 -164.89203636 58.00885924 -163.20825195 57.34545898 C-159.612502 55.93428086 -156.00842537 54.54820192 -152.39697266 53.17773438 C-143.80681594 49.89587074 -135.33788873 46.31901597 -126.85238647 42.77761841 C-121.98533178 40.75088714 -117.10947885 38.74555427 -112.234375 36.73828125 C-101.4679893 32.30082596 -90.70922179 27.84514002 -79.953125 23.3828125 C-78.29093598 22.69335518 -76.62874524 22.00390204 -74.96655273 21.31445312 C-70.78056192 19.57805617 -66.59469887 17.8413514 -62.40887451 16.10455322 C-54.86128895 12.97289864 -47.31354309 9.84163084 -39.76553345 6.71099854 C-37.07559635 5.59518914 -34.38581638 4.4790016 -31.69604492 3.36279297 C-30.0577876 2.68324978 -28.41952302 2.00372409 -26.78125 1.32421875 C-25.67016624 0.86295845 -25.67016624 0.86295845 -24.53663635 0.39237976 C-22.61394736 -0.40484713 -20.68985199 -1.19867999 -18.765625 -1.9921875 C-17.89905273 -2.41121338 -17.03248047 -2.83023926 -16.13964844 -3.26196289 C-10.52792375 -4.98807031 -5.16894855 -2.13959379 0 0 Z M21.984375 67.38671875 C21.38254395 67.89251465 20.78071289 68.39831055 20.16064453 68.91943359 C19.52497559 69.46422363 18.88930664 70.00901367 18.234375 70.5703125 C1.28257103 84.52845651 -15.55448184 89.74366472 -36.93188477 93.1796875 C-44.26347955 94.36660277 -51.46222253 95.71977911 -58.640625 97.6328125 C-59.37587402 97.82689697 -60.11112305 98.02098145 -60.86865234 98.22094727 C-64.20897356 99.14733073 -67.3247558 100.21737309 -70.4765625 101.6640625 C-73.6908265 102.97725349 -75.15740291 103.23215775 -78.515625 102.8828125 C-89.10078646 102.56116395 -100.16831709 106.46650255 -109.890625 110.3828125 C-116.9911116 113.06594568 -122.23481685 111.60235028 -129.203125 109.1328125 C-143.86263292 104.02250058 -162.80762552 100.57679121 -177.4609375 106.81640625 C-182.77967602 109.56592362 -186.59083871 112.98108432 -189.0703125 118.5234375 C-192.35474555 130.25882749 -188.38256683 141.33841281 -184.12890625 152.203125 C-183.85191895 152.91807129 -183.57493164 153.63301758 -183.28955078 154.36962891 C-182.74348718 155.7655498 -182.1838146 157.15624466 -181.60888672 158.54052734 C-180.04280813 162.48306803 -179.31738286 164.98068303 -180.765625 169.0078125 C-181.9052955 171.42357292 -183.08279114 173.77351035 -184.328125 176.1328125 C-200.36571461 207.51054728 -211.53448085 243.18307769 -212.203125 278.6328125 C-212.22544189 279.32536133 -212.24775879 280.01791016 -212.27075195 280.73144531 C-212.25526055 284.05916515 -211.9412473 285.77190195 -209.93359375 288.46875 C-207.78404861 290.30930889 -207.78404861 290.30930889 -204.640625 290.0078125 C-200.54118784 289.1630261 -196.73427059 287.49661711 -192.90234375 285.84765625 C-190.765625 285.0078125 -190.765625 285.0078125 -188.765625 285.0078125 C-188.75160645 286.32495239 -188.75160645 286.32495239 -188.73730469 287.66870117 C-188.52550961 303.6457328 -188.06473259 319.47441294 -185.890625 335.3203125 C-185.72916992 336.52776123 -185.56771484 337.73520996 -185.40136719 338.97924805 C-184.2833416 347.19597164 -184.2833416 347.19597164 -179.765625 354.0078125 C-174.28639304 353.78417038 -171.0910996 352.25199281 -166.66015625 349.06640625 C-164.765625 348.0078125 -164.765625 348.0078125 -160.765625 348.0078125 C-160.51506348 348.55493896 -160.26450195 349.10206543 -160.00634766 349.66577148 C-155.47975962 359.49596051 -150.86839117 369.22826521 -145.390625 378.5703125 C-144.98666504 379.26503662 -144.58270508 379.95976074 -144.16650391 380.67553711 C-142.04459854 384.21925142 -139.97995658 387.33693492 -136.765625 390.0078125 C-133.80902627 390.84131201 -133.80902627 390.84131201 -130.765625 390.0078125 C-128.72453693 388.16390526 -127.37331183 386.27748802 -125.765625 384.0078125 C-120.8718276 384.46603323 -117.86959459 386.94078615 -114.140625 389.8828125 C-99.67356425 400.87098 -83.40785491 409.07072745 -67.01171875 416.7734375 C-61.52877738 419.38202611 -56.52975675 421.97885485 -51.890625 425.9453125 C-47.75092425 429.46131662 -43.46928584 431.95958747 -38.640625 434.3828125 C-37.98336426 434.71659912 -37.32610352 435.05038574 -36.64892578 435.39428711 C-28.97954144 439.12163474 -21.94940928 440.36095404 -13.453125 440.2578125 C-12.61354248 440.24814453 -11.77395996 440.23847656 -10.90893555 440.22851562 C5.41687758 439.91294951 18.1624141 434.63129742 30.5703125 424.0078125 C35.63415097 420.20622115 41.43803437 417.69893425 47.14208984 414.99902344 C63.54435207 407.22852348 79.22856307 398.69958205 93.70288086 387.67871094 C94.36940674 387.18532227 95.03593262 386.69193359 95.72265625 386.18359375 C96.59724487 385.51710815 96.59724487 385.51710815 97.48950195 384.8371582 C99.234375 384.0078125 99.234375 384.0078125 101.33666992 384.21166992 C103.234375 385.0078125 103.234375 385.0078125 105.109375 387.5703125 C107.03894389 390.29194327 107.03894389 390.29194327 110.234375 390.5703125 C113.98587557 389.86690614 114.76476055 388.8859346 117.234375 386.0078125 C118.72938387 383.58825867 120.12962742 381.19000137 121.484375 378.6953125 C122.06372803 377.64549194 122.06372803 377.64549194 122.65478516 376.57446289 C123.85622035 374.38996843 125.04639563 372.19964912 126.234375 370.0078125 C126.61239258 369.31494141 126.99041016 368.62207031 127.37988281 367.90820312 C128.46158741 365.92333692 129.53718459 363.93533226 130.609375 361.9453125 C130.93067383 361.35129639 131.25197266 360.75728027 131.58300781 360.14526367 C133.69847163 356.17625592 135.51137329 352.15675833 137.234375 348.0078125 C141.32547364 348.3146449 143.94963529 349.32188203 147.296875 351.5703125 C149.75753442 353.19040315 151.10520344 353.98484867 154.046875 354.5078125 C156.79405366 353.87988595 157.50401788 353.22859169 159.234375 351.0078125 C160.71273197 346.11937878 161.44585633 341.04845763 162.234375 336.0078125 C162.39534668 335.00282715 162.39534668 335.00282715 162.55957031 333.97753906 C165.06957219 317.45933626 164.42816882 300.66364573 164.234375 284.0078125 C165.23597656 284.45253906 166.23757813 284.89726562 167.26953125 285.35546875 C168.61160483 285.92796168 169.95407425 286.49952726 171.296875 287.0703125 C171.95365234 287.36486328 172.61042969 287.65941406 173.28710938 287.96289062 C177.93679476 289.90980322 181.21257481 290.4058917 186.234375 289.0078125 C193.24531115 278.49140828 186.55029355 254.89992302 184.390625 243.19921875 C183.49637127 238.75914502 182.41128497 234.38075154 181.234375 230.0078125 C181.00266602 229.14542969 180.77095703 228.28304687 180.53222656 227.39453125 C175.26942925 208.23984554 168.28874853 189.33100056 158.48266602 172.00219727 C156.22335029 167.8241223 155.88807156 165.54677838 157.234375 161.0078125 C158.82225639 156.52696735 160.59053241 152.12192138 162.3515625 147.70703125 C166.08820645 138.17449796 168.44294624 127.51728564 165.046875 117.5078125 C160.08344393 110.66170068 153.66571178 106.17271047 145.3203125 104.3828125 C130.49815028 102.58163836 116.61782932 105.56288848 102.68798828 110.3815918 C94.07633115 113.28062041 89.06565003 111.36838763 81.046875 107.9453125 C68.11242806 102.62385071 54.8224836 99.22080295 41.234375 96.0078125 C42.02199219 95.2240625 42.80960938 94.4403125 43.62109375 93.6328125 C47.90547768 89.63012537 47.90547768 89.63012537 49.421875 84.2578125 C49.3290625 83.1440625 49.3290625 83.1440625 49.234375 82.0078125 C43.95345718 80.61513143 41.12186829 81.53197957 36.234375 83.8203125 C28.84175699 87.23291358 23.34634818 89.28753571 15.234375 89.0078125 C16.35585938 87.9559375 16.35585938 87.9559375 17.5 86.8828125 C25.32153802 79.47207353 25.32153802 79.47207353 30.234375 70.0078125 C30.13098105 67.1228294 30.13098105 67.1228294 29.234375 65.0078125 C24.96850627 64.97773382 24.96850627 64.97773382 21.984375 67.38671875 Z " fill="#FDFDFD" transform="translate(256.765625,4.9921875)"/>
<path d="M0 0 C2.54736204 0.03670903 5.09326876 0.04101666 7.64086914 0.04052734 C9.28866796 0.05035539 10.93645711 0.06201103 12.58422852 0.07568359 C13.33133591 0.07790924 14.0784433 0.08013489 14.84819031 0.08242798 C24.10499856 0.24616237 33.46870271 1.96416513 40.49047852 8.35693359 C49.85407711 18.29169439 51.03159948 27.28358947 51.35375977 40.41162109 C51.91063477 40.63076172 52.46750977 40.84990234 53.04125977 41.07568359 C64.76394654 45.94693519 71.5989443 52.62828487 76.60375977 64.34912109 C84.87012642 86.54140005 83.99757329 114.89577826 74.40454102 136.34130859 C70.05073864 145.40277827 63.40935623 152.87425035 54.35375977 157.41162109 C53.69375977 157.41162109 53.03375977 157.41162109 52.35375977 157.41162109 C52.21127808 158.44996094 52.21127808 158.44996094 52.06591797 159.50927734 C50.29811057 172.25008037 48.40490068 184.93845276 45.79125977 197.53662109 C45.5937915 198.49955078 45.39632324 199.46248047 45.19287109 200.45458984 C41.74598497 216.59776668 41.74598497 216.59776668 37.54125977 220.34912109 C27.00890944 227.16417131 12.79346103 225.59277125 0.72875977 225.59912109 C-0.50358398 225.61136719 -1.73592773 225.62361328 -3.00561523 225.63623047 C-23.71216334 225.66920268 -23.71216334 225.66920268 -30.64624023 219.41162109 C-35.11151704 213.07695261 -36.25016457 206.30543467 -37.70874023 198.78662109 C-37.96695557 197.50658203 -38.2251709 196.22654297 -38.49121094 194.90771484 C-40.19853733 186.26258697 -41.63983959 177.60543603 -42.62109375 168.84667969 C-43.16031359 164.38698742 -43.71773421 160.99821835 -46.64624023 157.41162109 C-49.03768058 155.7506952 -49.03768058 155.7506952 -51.77124023 154.34912109 C-62.95141949 147.48150768 -69.23372538 135.81485958 -72.64624023 123.41162109 C-77.26657247 101.24741865 -76.85219336 74.26394375 -64.89624023 54.53662109 C-59.718151 47.31385047 -53.04440534 43.00741758 -44.64624023 40.41162109 C-44.64366211 39.39583984 -44.64108398 38.38005859 -44.63842773 37.33349609 C-44.39902949 25.64858189 -42.14176017 16.43809899 -33.52124023 7.91162109 C-23.39237281 0.06276425 -12.26740954 -0.18279449 0 0 Z " fill="#030201" transform="translate(241.646240234375,186.58837890625)"/>
<path d="M0 0 C0.68835938 0.268125 1.37671875 0.53625 2.0859375 0.8125 C1.66174464 10.99312872 -5.91849266 17.13652472 -12.9140625 23.8125 C-4.93007046 24.41454116 0.66071487 21.7952338 7.83984375 18.56835938 C12.65685952 16.49711591 15.83526358 15.16843653 21.0859375 16.8125 C21.0152175 20.34849998 20.89430735 22.9166863 18.4609375 25.61328125 C16.71372834 27.08925028 14.94808917 28.48516996 13.0859375 29.8125 C15.92545544 31.34788903 18.55789128 32.27952243 21.69921875 33.00390625 C23.06022705 33.33152954 23.06022705 33.33152954 24.44873047 33.66577148 C25.42213379 33.89981689 26.39553711 34.1338623 27.3984375 34.375 C37.08153052 36.76215677 46.16873617 39.9531636 55.2824707 44.00415039 C64.51299978 47.92672907 71.20006453 46.34274515 80.4609375 43.375 C94.85940211 38.99163124 111.47443886 35.25692413 125.71484375 42.0703125 C132.1144604 45.62876019 135.73278813 48.75305189 138.0859375 55.8125 C138.20710727 57.87238601 138.26134247 59.9365887 138.2734375 62 C138.28761719 63.08667969 138.30179687 64.17335938 138.31640625 65.29296875 C137.7236346 74.34529511 134.02195945 82.58519867 130.74414062 90.94335938 C130.38900391 91.88373047 130.03386719 92.82410156 129.66796875 93.79296875 C129.34030518 94.63754639 129.0126416 95.48212402 128.67504883 96.35229492 C127.52696152 101.14685597 129.37501615 104.74929474 131.52734375 108.99609375 C132.02492188 109.99535889 132.5225 110.99462402 133.03515625 112.02416992 C133.56753906 113.08869385 134.09992188 114.15321777 134.6484375 115.25 C140.33061029 126.84856609 145.05423196 138.5488555 149.0859375 150.8125 C149.48167969 152.00101563 149.87742187 153.18953125 150.28515625 154.4140625 C156.20731788 173.65523585 163.66883704 200.59037211 160.0859375 220.8125 C158.24609375 223.16015625 158.24609375 223.16015625 156.0859375 224.8125 C151.06706869 224.91928444 146.97815466 223.05630944 142.33203125 221.24609375 C141.16212646 220.79161865 139.99222168 220.33714355 138.78686523 219.86889648 C137.89555908 219.52028564 137.00425293 219.1716748 136.0859375 218.8125 C136.09641113 219.71266846 136.10688477 220.61283691 136.11767578 221.5402832 C136.46496851 255.9596307 136.46496851 255.9596307 134.0859375 270.8125 C133.9734668 271.53147461 133.86099609 272.25044922 133.74511719 272.99121094 C131.83333496 284.79370123 131.83333496 284.79370123 129.6875 287.71875 C128.0859375 288.8125 128.0859375 288.8125 124.8984375 288.8125 C120.88008963 287.75850712 118.31259771 286.26669767 114.98046875 283.87109375 C112.86566404 282.48731266 112.86566404 282.48731266 109.0859375 282.8125 C108.56386719 283.96363281 108.04179687 285.11476563 107.50390625 286.30078125 C103.43291385 295.15268111 99.13803471 303.80434699 94.2734375 312.25 C93.81799561 313.04768799 93.36255371 313.84537598 92.89331055 314.66723633 C90.65626914 318.48811128 88.57525751 321.99025587 85.0859375 324.8125 C82.1484375 325.4375 82.1484375 325.4375 79.0859375 324.8125 C77.04484943 322.96859276 75.69362433 321.08217552 74.0859375 318.8125 C69.1921401 319.27072073 66.18990709 321.74547365 62.4609375 324.6875 C47.99387675 335.6756675 31.72816741 343.87541495 15.33203125 351.578125 C9.84908988 354.18671361 4.85006925 356.78354235 0.2109375 360.75 C-8.68355012 368.26708756 -20.1864086 374.13220734 -31.9140625 374.8125 C-32.60902832 374.85342773 -33.30399414 374.89435547 -34.02001953 374.93652344 C-51.39718643 375.81573615 -66.13897585 372.31601351 -79.7265625 360.875 C-85.01808685 356.48345145 -90.83152216 353.6133056 -97.01367188 350.70996094 C-114.40836255 342.49530486 -130.72520437 333.36657737 -146.2668457 321.99829102 C-149.72027143 319.40009718 -149.72027143 319.40009718 -153.9140625 318.8125 C-154.6771875 319.8025 -155.4403125 320.7925 -156.2265625 321.8125 C-158.24408529 324.37694162 -158.60356505 324.74913317 -161.9765625 325.4375 C-166.22547481 324.5334761 -167.88510638 322.39539183 -170.22875977 318.79003906 C-171.74962135 316.25727491 -173.21501456 313.6995243 -174.6640625 311.125 C-175.1890332 310.20050049 -175.71400391 309.27600098 -176.25488281 308.32348633 C-180.9147063 300.0148928 -185.03829337 291.51018191 -188.9140625 282.8125 C-193.5627353 283.52453263 -196.68787159 285.30220882 -200.6328125 287.75390625 C-203.32612841 289.00371552 -204.97811101 289.22715549 -207.9140625 288.8125 C-210.66014367 287.12982156 -210.94109516 285.71313997 -211.79296875 282.58203125 C-212.03299897 281.26518037 -212.26044759 279.94598641 -212.4765625 278.625 C-212.70472656 277.35269531 -212.93289062 276.08039063 -213.16796875 274.76953125 C-213.42462785 273.11840538 -213.67202397 271.46583235 -213.9140625 269.8125 C-214.16784668 268.08652588 -214.16784668 268.08652588 -214.42675781 266.32568359 C-215.8174929 256.14504845 -216.32675146 246.07862365 -216.5390625 235.8125 C-216.57739468 234.24737778 -216.61645416 232.68227319 -216.65625 231.1171875 C-216.7505233 227.34910766 -216.83512568 223.58093101 -216.9140625 219.8125 C-218.3600672 220.28434228 -219.80521725 220.75880426 -221.25 221.234375 C-222.0548584 221.49831055 -222.8597168 221.76224609 -223.68896484 222.03417969 C-226.01674041 222.80357986 -226.01674041 222.80357986 -228.5390625 224.0625 C-231.94876403 225.13924785 -234.47988084 224.65484644 -237.9140625 223.8125 C-245.26129914 212.79164504 -238.28472621 188.84612257 -235.9140625 176.8125 C-233.96219657 168.03659129 -231.54067545 159.40804106 -228.9140625 150.8125 C-228.64754883 149.93577637 -228.38103516 149.05905273 -228.10644531 148.15576172 C-223.23692319 132.49325236 -217.028323 115.48389076 -207.9140625 101.8125 C-208.30837392 98.24604153 -209.47232524 95.035464 -210.7265625 91.6875 C-211.25636719 90.25664062 -211.25636719 90.25664062 -211.796875 88.796875 C-212.16554688 87.81203125 -212.53421875 86.8271875 -212.9140625 85.8125 C-213.64667437 83.85545291 -214.37595989 81.89715669 -215.1015625 79.9375 C-215.42511719 79.07382813 -215.74867188 78.21015625 -216.08203125 77.3203125 C-218.7007975 69.42712972 -219.82478392 59.08053073 -216.4140625 51.3125 C-212.67723233 45.18934319 -206.36763503 41.23221021 -199.5625 39.28125 C-183.89484721 36.50821411 -167.01018941 40.11438756 -152.44140625 45.921875 C-144.88602486 47.82954605 -138.04446032 45.45605546 -130.9140625 42.875 C-121.78208066 39.61697523 -113.86617002 37.45471476 -104.1015625 38.1328125 C-100.33122215 37.75393026 -97.69386569 36.4607158 -94.29736328 34.85498047 C-90.43510923 33.16559051 -86.4513069 32.24566557 -82.3515625 31.3125 C-81.4538916 31.10093262 -80.5562207 30.88936523 -79.63134766 30.67138672 C-73.72845034 29.32386483 -67.82128804 28.29263657 -61.83496094 27.39526367 C-43.6433021 24.66126557 -27.73747401 19.67493462 -13.31640625 7.890625 C-12.69032471 7.38305664 -12.06424316 6.87548828 -11.41918945 6.35253906 C-10.18914418 5.34499127 -8.97207077 4.32134195 -7.77026367 3.28027344 C-3.54566198 -0.22813911 -3.54566198 -0.22813911 0 0 Z M-84.87451172 39.64697266 C-88.19140924 39.8276037 -91.35768741 39.60259048 -94.6640625 39.3125 C-103.61828947 39.2420735 -110.59258271 43.47308832 -118.33642578 47.50732422 C-122.80889064 49.77193846 -127.39420091 51.78219828 -131.9765625 53.8125 C-133.65521842 54.56189437 -135.33362593 55.31184556 -137.01171875 56.0625 C-137.71820557 56.37703125 -138.42469238 56.6915625 -139.15258789 57.015625 C-140.41860621 57.58836011 -141.67121806 58.19107778 -142.9140625 58.8125 C-148.85450389 58.60765719 -154.04129055 57.22370128 -159.6640625 55.375 C-171.4867219 51.53435211 -188.17762559 47.27013973 -200.19921875 52.14453125 C-203.47062059 54.05897693 -203.47062059 54.05897693 -205.9140625 56.8125 C-206.35271339 59.71332617 -206.35271339 59.71332617 -206.2265625 62.875 C-206.22076172 64.47021484 -206.22076172 64.47021484 -206.21484375 66.09765625 C-206.18405762 68.95913266 -206.18405762 68.95913266 -203.9140625 70.8125 C-202.9240625 70.1525 -201.9340625 69.4925 -200.9140625 68.8125 C-193.07578667 67.74251314 -186.21149919 69.28587691 -178.82421875 71.83984375 C-176.18828507 72.72084709 -173.64775601 73.3342295 -170.9140625 73.8125 C-172.25743537 79.68091831 -175.15553587 82.39156002 -179.4140625 86.3125 C-186.26963556 92.90622216 -191.79820115 99.81123788 -196.9140625 107.8125 C-197.92339844 109.37097656 -197.92339844 109.37097656 -198.953125 110.9609375 C-215.06608309 137.47349405 -227.33701517 173.01561813 -226.9765625 204.375 C-226.96753906 205.40753906 -226.95851563 206.44007813 -226.94921875 207.50390625 C-226.93761719 208.26574219 -226.92601562 209.02757812 -226.9140625 209.8125 C-225.58004473 209.37709142 -224.24689476 208.93902414 -222.9140625 208.5 C-222.09292969 208.23058594 -221.27179688 207.96117187 -220.42578125 207.68359375 C-217.53268379 206.68023335 -214.73122562 205.50901694 -211.93359375 204.265625 C-209.11258948 203.6326724 -206.73149595 204.2945384 -203.9140625 204.8125 C-203.92072433 205.78397224 -203.92072433 205.78397224 -203.92752075 206.77507019 C-203.97209166 213.57325005 -204.00206773 220.37138775 -204.02392578 227.16967773 C-204.03392502 229.69996835 -204.04752879 232.23024759 -204.06494141 234.76049805 C-204.08945872 238.41718369 -204.10060674 242.07371532 -204.109375 245.73046875 C-204.11969757 246.84455612 -204.13002014 247.95864349 -204.14065552 249.10649109 C-204.14173693 256.83892256 -203.28815185 264.20602787 -201.9140625 271.8125 C-200.9240625 272.1425 -199.9340625 272.4725 -198.9140625 272.8125 C-196.33881221 271.39411774 -193.99581266 269.73904895 -191.58203125 268.0625 C-188.9140625 266.8125 -188.9140625 266.8125 -185.80078125 266.71875 C-182.9140625 267.8125 -182.9140625 267.8125 -181.078125 270.59375 C-180.54247251 271.82372302 -180.03090943 273.06436386 -179.5390625 274.3125 C-178.95144582 275.67878361 -178.3628656 277.04465313 -177.7734375 278.41015625 C-177.47244141 279.1283252 -177.17144531 279.84649414 -176.86132812 280.58642578 C-175.26015757 284.34917657 -173.52752063 288.04912317 -171.7890625 291.75 C-171.28560303 292.82785767 -171.28560303 292.82785767 -170.77197266 293.92749023 C-168.47042132 298.7965928 -165.94988506 303.35363562 -162.9140625 307.8125 C-159.82987246 307.25645103 -159.82987246 307.25645103 -157.6015625 305.1875 C-155.9140625 303.8125 -155.9140625 303.8125 -152.7265625 303.6875 C-148.98075087 304.79282147 -147.9370892 305.45475536 -145.22265625 308.0078125 C-141.11678076 311.71442014 -136.7899132 314.79272222 -132.1640625 317.8125 C-131.38272949 318.32651367 -130.60139648 318.84052734 -129.79638672 319.37011719 C-119.09093038 327.31300331 -119.09093038 327.31300331 -106.9140625 330.8125 C-107.62959606 325.55181668 -110.06142496 321.1625398 -112.47460938 316.515625 C-114.64563662 312.11064219 -115.27049705 308.82850619 -114.9140625 303.8125 C-113.5940625 303.4825 -112.2740625 303.1525 -110.9140625 302.8125 C-106.276652 308.9266278 -102.03311696 315.1426472 -98.0390625 321.6875 C-87.17740762 339.35757849 -73.93691183 356.35144323 -53.07373047 362.34082031 C-40.93600424 364.99174582 -27.8263938 363.55420756 -16.9140625 357.8125 C-16.09550781 357.43609375 -15.27695312 357.0596875 -14.43359375 356.671875 C4.74292227 346.78642791 16.94769709 325.70524558 26.30859375 307.1640625 C28.0859375 303.8125 28.0859375 303.8125 30.0859375 301.8125 C31.0759375 301.8125 32.0659375 301.8125 33.0859375 301.8125 C33.80043225 309.73545289 32.41919783 315.58095041 29.27734375 322.8671875 C28.19455751 325.54397709 27.54204066 327.97102973 27.0859375 330.8125 C33.19320577 330.42895175 37.30116537 327.50929381 42.2734375 324.25 C43.11551758 323.70714355 43.95759766 323.16428711 44.82519531 322.60498047 C52.50911239 317.61590387 60.15420386 312.6132576 66.8359375 306.3125 C69.44274367 304.01901188 70.15710802 303.80063825 73.8359375 303.1875 C77.0859375 303.8125 77.0859375 303.8125 79.0234375 305.8125 C79.3740625 306.4725 79.7246875 307.1325 80.0859375 307.8125 C82.02552178 307.54228109 82.02552178 307.54228109 84.0859375 306.8125 C85.68441158 304.40409164 86.98716536 302.13245621 88.2734375 299.5625 C88.65636963 298.8212085 89.03930176 298.07991699 89.43383789 297.31616211 C93.02408985 290.22850324 96.14604269 282.94040082 99.16674805 275.59472656 C99.520354 274.73975586 99.87395996 273.88478516 100.23828125 273.00390625 C100.54757568 272.24279541 100.85687012 271.48168457 101.17553711 270.69750977 C102.0859375 268.8125 102.0859375 268.8125 104.0859375 266.8125 C108.26806059 266.97650483 111.26146325 267.75765391 114.7734375 269.9375 C117.78577283 272.1048193 117.78577283 272.1048193 120.29296875 271.4296875 C121.18048828 271.12417969 121.18048828 271.12417969 122.0859375 270.8125 C123.92285074 259.86907637 124.37115651 249.22147057 124.29174805 238.14038086 C124.27334089 235.48606838 124.27124029 232.83210453 124.27148438 230.17773438 C124.26666508 219.92231667 124.26666508 219.92231667 123.44921875 209.70703125 C123.26939453 207.77923828 123.26939453 207.77923828 123.0859375 205.8125 C123.7459375 205.1525 124.4059375 204.4925 125.0859375 203.8125 C130.92060451 204.02088096 135.48283826 205.59837439 140.7890625 207.97265625 C143.30446085 209.04143982 143.30446085 209.04143982 147.0859375 208.8125 C147.23316806 202.25256055 146.91767374 195.98075408 145.8984375 189.5 C145.7653418 188.64535156 145.63224609 187.79070312 145.49511719 186.91015625 C139.83628261 152.1722545 127.77946075 118.27026763 104.0859375 91.8125 C102.79330221 90.31333464 101.50148507 88.81346294 100.2109375 87.3125 C98.26338105 85.07398331 96.35195009 83.1409796 94.1484375 81.125 C91.68062472 78.3580584 91.8908211 77.37780877 92.0859375 73.8125 C114.23255366 65.94314401 114.23255366 65.94314401 125.0859375 70.8125 C126.28847997 66.46560469 126.81268176 62.29275857 126.0859375 57.8125 C123.55625276 54.53074682 122.00862419 53.12006223 118.0859375 51.8125 C101.29128243 50.15780651 86.53093775 53.18531886 70.87109375 59.0078125 C65.59284623 60.53280407 61.74443848 59.9982466 56.87890625 57.5625 C40.08700451 49.51372347 22.34689941 45.05873742 4.0859375 41.8125 C3.39226074 41.68649414 2.69858398 41.56048828 1.98388672 41.43066406 C-13.2510089 38.70480273 -28.4349935 38.6533915 -43.86035156 38.68212891 C-47.27413395 38.68747661 -50.68778417 38.6821649 -54.1015625 38.67578125 C-64.39736692 38.67334353 -74.61342393 38.72303187 -84.87451172 39.64697266 Z " fill="#040403" transform="translate(284.9140625,70.1875)"/>
<path d="M0 0 C0.74158356 0.30140396 1.48316711 0.60280792 2.2472229 0.91334534 C4.6621907 1.89697154 7.07331367 2.88965357 9.484375 3.8828125 C11.173194 4.57335482 12.86216026 5.26353713 14.55126953 5.95336914 C24.78196939 10.1396259 34.97843131 14.40328105 45.14599609 18.74072266 C54.76438593 22.83520846 64.4342165 26.79995334 74.109375 30.7578125 C83.96347512 34.79000335 93.81585827 38.82570834 103.6484375 42.91015625 C104.7855719 43.38082016 104.7855719 43.38082016 105.94567871 43.86099243 C109.70960329 45.42217371 113.46135233 47.00535515 117.19628906 48.63476562 C124.30867163 51.71400266 131.23277854 54.38346604 138.7421875 56.32421875 C148.6056992 59.03619025 158.29656666 61.95052455 164.00488281 71.03662109 C169.75170122 81.40729656 173.3732632 92.80287471 177.14208984 103.99853516 C180.18630811 112.92519431 183.90784528 121.56981103 187.58221436 130.25091553 C189.60915057 135.06001291 191.58935953 139.88826625 193.57421875 144.71484375 C197.64075161 154.57825963 201.7225343 164.43530882 205.81057739 174.28982544 C206.84928075 176.79595759 207.88573945 179.30300714 208.92163086 181.81030273 C212.20304377 189.74605729 215.50735618 197.67055005 218.87490845 205.57020569 C220.48949411 209.36127487 222.09318211 213.1569088 223.69598389 216.95297241 C224.46465785 218.76488708 225.23869523 220.57453681 226.01837158 222.38174438 C227.09606126 224.88051413 228.15528221 227.38638978 229.2109375 229.89453125 C229.69542358 230.99787308 229.69542358 230.99787308 230.18969727 232.12350464 C233.14672373 239.24860263 231.5045569 243.76153786 228.70928955 250.5266571 C228.35920837 251.35575089 228.0091272 252.18484467 227.6484375 253.0390625 C227.27998718 253.92604324 226.91153687 254.81302399 226.53192139 255.72688293 C225.3135481 258.65631724 224.08640918 261.58199664 222.859375 264.5078125 C221.99884512 266.57288316 221.13899284 268.63823629 220.27978516 270.70385742 C218.49186306 275.00076607 216.70101695 279.29643878 214.90820312 283.59130859 C211.17654117 292.53769003 207.48312898 301.49981069 203.78839111 310.46148682 C199.16275457 321.67752399 194.52833423 332.88996873 189.88493347 344.09866333 C189.15716821 345.85681546 188.43068682 347.61549961 187.70552063 349.37472534 C185.93572889 353.66235763 184.14346305 357.9374446 182.29858398 362.19335938 C178.79665459 370.33536631 175.77544217 378.28407161 173.52734375 386.86328125 C170.35096777 398.26991656 167.09359591 409.62190994 156.54833984 416.22167969 C144.87386372 422.66269166 132.08716495 426.7477937 119.46533203 430.89453125 C111.05261457 433.68825188 102.94127164 437.13826319 94.79901123 440.62832642 C90.62634371 442.40767725 86.4314133 444.13285155 82.23828125 445.86328125 C80.57427519 446.55231491 78.91037537 447.2416052 77.24658203 447.93115234 C76.42168274 448.2728949 75.59678345 448.61463745 74.74688721 448.96673584 C69.64387912 451.08120223 64.54129868 453.19670083 59.43917847 455.31330872 C55.18882758 457.07641966 50.9376699 458.83752312 46.68457031 460.59399414 C38.65691325 463.9118553 30.6399396 467.25113116 22.64932251 470.65740967 C18.86411178 472.26960615 15.07435088 473.87094177 11.28417969 475.47143555 C9.4744115 476.23927958 7.66690145 477.01247012 5.86181641 477.79125977 C3.36259221 478.86914086 0.85625758 479.9285412 -1.65234375 480.984375 C-2.38793015 481.30737579 -3.12351654 481.63037659 -3.88139343 481.96316528 C-11.00644848 484.92017783 -15.51939597 483.27797555 -22.2844696 480.48272705 C-23.11356339 480.13264587 -23.94265717 479.7825647 -24.796875 479.421875 C-25.68385574 479.05342468 -26.57083649 478.68497437 -27.48469543 478.30535889 C-30.41412974 477.0869856 -33.33980914 475.85984668 -36.265625 474.6328125 C-38.33069566 473.77228262 -40.39604879 472.91243034 -42.46166992 472.05322266 C-46.75857857 470.26530056 -51.05425128 468.47445445 -55.34912109 466.68164062 C-64.29550253 462.94997867 -73.25762319 459.25656648 -82.21929932 455.56182861 C-93.43530209 450.93620626 -104.64756579 446.30145393 -115.85641479 441.65852356 C-117.61489024 440.9305399 -119.37377852 440.20355261 -121.13308716 439.47758484 C-125.41438577 437.70894358 -129.68620703 435.92234044 -133.94238281 434.09399414 C-142.12777159 430.59946777 -150.22501048 427.47859045 -158.76171875 424.94921875 C-182.65889376 417.57594787 -182.65889376 417.57594787 -188.81867981 407.23544312 C-193.31053211 398.67512795 -196.16806137 389.464641 -199.04052734 380.26611328 C-201.56172202 372.34647079 -204.90141662 364.76582046 -208.1729126 357.13394165 C-210.00381482 352.83843416 -211.77962595 348.52033826 -213.55859375 344.203125 C-213.91062866 343.35101944 -214.26266357 342.49891388 -214.62536621 341.62098694 C-218.61815558 331.95516876 -222.57820311 322.27592506 -226.53912354 312.59701538 C-233.38332762 295.87772618 -240.33192336 279.20223638 -247.29223633 262.53100586 C-247.70839706 261.5340419 -248.1245578 260.53707794 -248.55332947 259.50990295 C-249.33455727 257.63875464 -250.11616085 255.76776316 -250.89820862 253.8969574 C-251.57540498 252.27542169 -252.24854459 250.65218204 -252.91644287 249.02679443 C-253.59032759 247.42459271 -254.32437357 245.84771831 -255.07861328 244.28173828 C-256.75723 238.72571976 -253.88787659 233.35037508 -251.7734375 228.2421875 C-251.47216949 227.50092117 -251.17090149 226.75965485 -250.86050415 225.9959259 C-249.87676038 223.58062925 -248.88394347 221.16918547 -247.890625 218.7578125 C-247.19789224 217.06386377 -246.50551277 215.36977052 -245.81347656 213.67553711 C-241.6935095 203.60809919 -237.50121175 193.57272566 -233.23486328 183.56640625 C-228.66554237 172.82973262 -224.21549356 162.04442402 -219.765625 151.2578125 C-219.36425323 150.28506378 -218.96288147 149.31231506 -218.54934692 148.31008911 C-216.04920505 142.25024133 -213.55053168 136.18978882 -211.05230713 130.12915039 C-207.59961771 121.75333629 -204.14540363 113.37815249 -200.68920898 105.00378418 C-199.10743281 101.1699374 -197.52684574 97.33560364 -195.94937134 93.49998474 C-195.21875562 91.73544037 -194.48063251 89.97398282 -193.73446655 88.21595764 C-192.14694367 84.46530666 -190.64522972 80.76663642 -189.47314453 76.86401367 C-187.4122984 70.62989224 -185.56117191 66.85146074 -179.5546875 63.74256897 C-175.85879634 62.07525027 -172.07732307 60.69636319 -168.265625 59.3203125 C-166.57778875 58.66728982 -164.89203636 58.00885924 -163.20825195 57.34545898 C-159.612502 55.93428086 -156.00842537 54.54820192 -152.39697266 53.17773438 C-143.80681594 49.89587074 -135.33788873 46.31901597 -126.85238647 42.77761841 C-121.98533178 40.75088714 -117.10947885 38.74555427 -112.234375 36.73828125 C-101.4679893 32.30082596 -90.70922179 27.84514002 -79.953125 23.3828125 C-78.29093598 22.69335518 -76.62874524 22.00390204 -74.96655273 21.31445312 C-70.78056192 19.57805617 -66.59469887 17.8413514 -62.40887451 16.10455322 C-54.86128895 12.97289864 -47.31354309 9.84163084 -39.76553345 6.71099854 C-37.07559635 5.59518914 -34.38581638 4.4790016 -31.69604492 3.36279297 C-30.0577876 2.68324978 -28.41952302 2.00372409 -26.78125 1.32421875 C-25.67016624 0.86295845 -25.67016624 0.86295845 -24.53663635 0.39237976 C-22.61394736 -0.40484713 -20.68985199 -1.19867999 -18.765625 -1.9921875 C-17.89905273 -2.41121338 -17.03248047 -2.83023926 -16.13964844 -3.26196289 C-10.52792375 -4.98807031 -5.16894855 -2.13959379 0 0 Z M-17.42578125 6.81640625 C-18.92395386 7.42838867 -18.92395386 7.42838867 -20.45239258 8.05273438 C-21.56638428 8.51228516 -22.68037598 8.97183594 -23.828125 9.4453125 C-25.01494873 9.93193359 -26.20177246 10.41855469 -27.42456055 10.91992188 C-40.62883195 16.33864536 -53.8077925 21.81929176 -66.98960876 27.29234314 C-78.27703052 31.97860093 -89.57107452 36.64865954 -100.86810303 41.31170654 C-106.62978459 43.69014636 -112.39086461 46.07004285 -118.15197754 48.44985962 C-122.97140382 50.4406774 -127.79096646 52.43116332 -132.61083984 54.42089844 C-137.33402283 56.37094138 -142.05634102 58.32306543 -146.77807617 60.27661133 C-148.5339772 61.00272135 -150.29015335 61.72816647 -152.04663086 62.45288086 C-152.87622314 62.79520752 -153.70581543 63.13753418 -154.56054688 63.49023438 C-155.76374069 63.98575554 -155.76374069 63.98575554 -156.99124146 64.49128723 C-158.53677269 65.13452054 -160.07834913 65.78735406 -161.615448 66.45048523 C-164.75388323 67.80243909 -167.71398374 68.9941191 -171.02587891 69.87231445 C-174.96971984 71.0389516 -177.63476172 72.2597666 -179.92831421 75.80505371 C-183.10866436 81.77722012 -185.39460005 88.1215402 -187.765625 94.4453125 C-188.57580403 96.51683077 -189.39017119 98.58671541 -190.20849609 100.6550293 C-191.9062639 104.95560717 -193.58578437 109.26265889 -195.25292969 113.57519531 C-198.75693981 122.59814852 -202.47977114 131.52906051 -206.2020874 140.46359253 C-208.18650933 145.23326726 -210.15447124 150.00972954 -212.125 154.78515625 C-215.53675222 163.04397747 -218.95833649 171.29868286 -222.38833618 179.54994202 C-224.17460146 183.84777155 -225.95718895 188.14703262 -227.72998047 192.45043945 C-228.41097925 194.10243961 -229.09212986 195.75437719 -229.7734375 197.40625 C-230.27029556 198.61093178 -230.27029556 198.61093178 -230.77719116 199.83995056 C-232.74892102 204.60321955 -234.7661272 209.34389144 -236.8253479 214.06997681 C-238.106658 217.01825158 -239.36682604 219.97530106 -240.62408447 222.93389893 C-241.20913204 224.29484445 -241.80433121 225.65147988 -242.4105835 227.00311279 C-243.2371775 228.84743129 -244.0257631 230.70864297 -244.8125 232.5703125 C-245.26463867 233.60285156 -245.71677734 234.63539063 -246.18261719 235.69921875 C-247.01460674 240.42079428 -245.55491854 243.65695436 -243.765625 248.0078125 C-243.50364319 248.68300934 -243.24166138 249.35820618 -242.97174072 250.05386353 C-242.17133344 252.09704812 -241.33999229 254.1251311 -240.5 256.15234375 C-240.03538612 257.28358673 -240.03538612 257.28358673 -239.56138611 258.43768311 C-238.54913913 260.89980964 -237.53248868 263.36008949 -236.515625 265.8203125 C-235.7951532 267.56950777 -235.07486005 269.31877663 -234.35473633 271.06811523 C-229.14610548 283.71009715 -223.89308172 296.33354479 -218.62402344 308.95043945 C-214.29484563 319.31959739 -209.99414887 329.70026481 -205.70947266 340.08789062 C-204.08976439 344.01417161 -202.46555411 347.93854123 -200.83740234 351.86132812 C-197.35038374 360.27001787 -193.87633052 368.6805621 -190.53604126 377.14883423 C-189.2087613 380.50888813 -187.86343358 383.86156322 -186.51611328 387.21362305 C-185.8988061 388.76460333 -185.29062583 390.31925259 -184.69238281 391.87768555 C-183.87120078 394.0156147 -183.01944896 396.13887827 -182.16015625 398.26171875 C-181.69456299 399.45095947 -181.22896973 400.6402002 -180.74926758 401.86547852 C-176.47186352 408.64141299 -168.68643933 411.07835624 -161.46484375 413.82421875 C-159.68498002 414.51865921 -157.90553011 415.21416107 -156.12646484 415.91064453 C-155.23086853 416.25927551 -154.33527222 416.60790649 -153.41253662 416.96710205 C-149.34917632 418.56473058 -145.31630775 420.23323176 -141.28515625 421.91015625 C-140.50375778 422.2345166 -139.72235931 422.55887695 -138.9172821 422.89306641 C-136.47044885 423.9094086 -134.02429271 424.92736966 -131.578125 425.9453125 C-129.79717809 426.6852005 -128.01617069 427.42494293 -126.23510742 428.16455078 C-122.55884115 429.69131557 -118.88282787 431.21868687 -115.20703125 432.74658203 C-106.66591425 436.2964553 -98.12215877 439.83996641 -89.578125 443.3828125 C-88.75276245 443.72507874 -87.9273999 444.06734497 -87.07702637 444.41998291 C-73.68603518 449.97260703 -60.29146618 455.51656593 -46.89389038 461.05328369 C-44.87332787 461.88834789 -42.85283863 462.72358943 -40.83242798 463.559021 C-38.00962111 464.72613199 -35.18649711 465.89247249 -32.36328125 467.05859375 C-31.53894592 467.39954575 -30.7146106 467.74049774 -29.86529541 468.09178162 C-28.28977926 468.74214377 -26.71086959 469.38435442 -25.12844849 470.01773071 C-23.48299949 470.70721475 -21.86155854 471.45568418 -20.26290894 472.24765015 C-15.89031792 474.30830375 -12.95409746 475.5337493 -8.234375 473.99853516 C-6.73287749 473.36237913 -5.24304008 472.69805444 -3.765625 472.0078125 C-2.2362093 471.39820971 -0.70490685 470.79332199 0.828125 470.19287109 C2.46484739 469.51715149 4.1002049 468.83811894 5.734375 468.15625 C7.07898552 467.5996167 7.07898552 467.5996167 8.45075989 467.03173828 C11.3798523 465.81835026 14.3071124 464.60060743 17.234375 463.3828125 C19.29895534 462.52657348 21.36365441 461.67062069 23.4284668 460.81494141 C27.65403208 459.06323287 31.87885921 457.30976249 36.10302734 455.5546875 C41.71446199 453.22327877 47.3275657 450.89592107 52.94140625 448.5703125 C60.50222359 445.43773166 68.06207259 442.30282525 75.62130737 439.16642761 C82.5996736 436.27104175 89.57816011 433.37594583 96.55741882 430.48271179 C100.9128151 428.67711929 105.26758723 426.87005804 109.62084961 425.05932617 C116.73517941 422.10200553 123.85075291 419.15064779 130.99963379 416.27763367 C133.73859878 415.17688576 136.47447563 414.06857273 139.21032715 412.96011353 C141.05244138 412.2182413 142.8996905 411.4891592 144.74707031 410.76049805 C145.83342773 410.3200415 146.91978516 409.87958496 148.0390625 409.42578125 C149.44647705 408.86540161 149.44647705 408.86540161 150.88232422 408.29370117 C155.92173339 405.53860795 157.38926705 400.6353732 159.4296875 395.52734375 C159.73405228 394.77955154 160.03841705 394.03175934 160.352005 393.26130676 C161.01227281 391.63733525 161.66989148 390.01228472 162.32516479 388.3862915 C163.74162522 384.87191146 165.17106568 381.36285679 166.59965515 377.85339355 C167.34909993 376.01194462 168.0978791 374.17022468 168.84602356 372.32824707 C172.74063866 362.7434017 176.70239161 353.18683731 180.671875 343.6328125 C181.38232232 341.92117557 182.09268976 340.20950548 182.80297852 338.49780273 C185.30330963 332.47293468 187.80528518 326.4487499 190.30725098 320.42456055 C194.90618556 309.3508997 199.50104913 298.2755717 204.08642578 287.19628906 C205.56245419 283.62990591 207.04022893 280.06425238 208.51904297 276.49902344 C210.40371247 271.95421953 212.28347242 267.40741213 214.15988159 262.85919189 C214.86982551 261.14039729 215.58132489 259.42224426 216.29446411 257.70477295 C217.27870345 255.33356459 218.25722539 252.96007453 219.234375 250.5859375 C219.52517441 249.88894745 219.81597382 249.1919574 220.11558533 248.47384644 C222.92629905 242.09375666 222.92629905 242.09375666 222.46850586 235.40942383 C222.04964111 234.4789624 221.63077637 233.54850098 221.19921875 232.58984375 C220.49116089 230.98363159 220.49116089 230.98363159 219.76879883 229.3449707 C219.24181396 228.1818335 218.7148291 227.01869629 218.171875 225.8203125 C217.04337132 223.27090803 215.92475486 220.71718242 214.8046875 218.1640625 C214.5109877 217.49816605 214.2172879 216.83226959 213.91468811 216.14619446 C210.6628905 208.75712155 207.60217424 201.29224127 204.546875 193.8203125 C203.3627619 190.93197039 202.17744649 188.04412204 200.9921875 185.15625 C200.68974121 184.41889618 200.38729492 183.68154236 200.07568359 182.92184448 C196.38137798 173.91988345 192.65149496 164.93268573 188.921875 155.9453125 C188.20882063 154.22680705 187.49576724 152.50830119 186.78271484 150.78979492 C185.70173987 148.18465842 184.62072344 145.57953917 183.5395813 142.97447205 C180.90935653 136.63633801 178.28223081 130.29692465 175.65625 123.95703125 C174.52490538 121.22623325 173.39351704 118.49545336 172.26211548 115.76467896 C171.55146697 114.04915655 170.84098906 112.33356347 170.13070679 110.6178894 C169.79648712 109.81062408 169.46226746 109.00335876 169.11791992 108.17163086 C168.78862991 107.37621384 168.4593399 106.58079681 168.12007141 105.76127625 C167.14964823 103.42179518 166.17426217 101.08442489 165.19873047 98.74707031 C163.80720403 95.40751193 162.44796796 92.05642814 161.10205078 88.69824219 C160.39751896 86.9654712 159.69293079 85.23272312 158.98828125 83.5 C158.67084457 82.69265411 158.3534079 81.88530823 158.02635193 81.05349731 C155.53327453 74.9740274 153.2069617 72.8331922 147.20825195 70.19287109 C145.54880835 69.50809926 143.88674576 68.82965305 142.22265625 68.15625 C141.31940109 67.78525177 140.41614594 67.41425354 139.48551941 67.03201294 C136.50809465 65.8103569 133.52748007 64.59668604 130.546875 63.3828125 C128.45546712 62.52603 126.36432456 61.66859959 124.2734375 60.81054688 C119.99125139 59.05356957 115.7081008 57.29897497 111.42431641 55.54589844 C103.34041684 52.23472268 95.27197936 48.88658416 87.20504761 45.53433228 C83.03327781 43.80103739 78.86044231 42.07031354 74.6875 40.33984375 C73.84859726 39.99195297 73.00969452 39.64406219 72.14537048 39.28562927 C59.64899128 34.10504113 47.14497287 28.9428878 34.63964844 23.78393555 C26.07209672 20.24895571 17.50664797 16.70943523 8.953125 13.140625 C7.5739183 12.56610192 6.19468751 11.99163666 4.81542969 11.41723633 C2.33529765 10.38436581 -0.14286378 9.34716845 -2.62011719 8.30737305 C-3.68391602 7.86433838 -4.74771484 7.42130371 -5.84375 6.96484375 C-6.75543945 6.58303955 -7.66712891 6.20123535 -8.60644531 5.80786133 C-12.18014281 4.48368599 -13.99205818 5.40797163 -17.42578125 6.81640625 Z " fill="#0D0E0E" transform="translate(256.765625,4.9921875)"/>
<path d="M0 0 C23.87070211 22.09624284 34.57910301 67.74484206 37 99 C37.0590237 100.85334407 37.08861408 102.70840019 37.0625 104.5625 C37.05347656 105.40941406 37.04445313 106.25632812 37.03515625 107.12890625 C37.01775391 108.05509766 37.01775391 108.05509766 37 109 C31.86793755 108.44518244 27.44082496 106.73598839 22.68359375 104.83984375 C19.91384731 103.97303809 17.88018455 103.68982628 15 104 C14.34 104.66 13.68 105.32 13 106 C13.20593874 108.20775185 13.42645462 110.41456843 13.69384766 112.61572266 C14.3073304 119.39729986 14.18592845 126.21556274 14.18530273 133.02026367 C14.18748069 135.66406573 14.20566409 138.30744373 14.22460938 140.95117188 C14.25719945 151.14899891 13.68984601 160.9327304 12 171 C8.27294922 172.12451172 8.27294922 172.12451172 5.81640625 171.00390625 C5.07261719 170.52824219 4.32882812 170.05257812 3.5625 169.5625 C0.23159079 167.43651099 -2.00891296 166.3185949 -6 167 C-9.5004832 170.21666024 -10.84764741 175.29037897 -12.5625 179.625 C-16.59560863 189.550349 -21.61033191 198.75583568 -27 208 C-28.875 207.6875 -28.875 207.6875 -31 207 C-31.66 206.01 -32.32 205.02 -33 204 C-36.1971771 203.07660426 -36.1971771 203.07660426 -40 204 C-42.28291654 205.70181051 -44.25161692 207.61680813 -46.3046875 209.58984375 C-51.69328 214.40833879 -57.90549352 218.14176638 -64 222 C-64.68594238 222.43618652 -65.37188477 222.87237305 -66.07861328 223.32177734 C-68.10685878 224.60304995 -70.14443529 225.86751656 -72.1875 227.125 C-73.12263428 227.71075806 -73.12263428 227.71075806 -74.07666016 228.30834961 C-77.42997738 230.33387103 -78.96825041 231 -83 231 C-82.35469546 226.97982689 -81.04620198 223.60572196 -79.4375 219.875 C-76.99115117 213.70991975 -76.40751247 208.57002834 -77 202 C-80.64263024 202.59690159 -80.90918993 202.8738749 -83.25 206.125 C-85.20012985 209.43844252 -86.94480345 212.8434451 -88.69506836 216.265625 C-97.16557798 232.66903257 -109.95833219 249.90977485 -127 258 C-128.37091797 258.72316406 -128.37091797 258.72316406 -129.76953125 259.4609375 C-140.9421858 264.65285142 -155.47144846 265.32479262 -167.1875 261.375 C-168.81717759 260.63727529 -170.42384515 259.84606306 -172 259 C-172.83273438 258.57589844 -173.66546875 258.15179688 -174.5234375 257.71484375 C-191.95037601 248.08981156 -202.1191529 231.60734511 -212.546875 215.328125 C-215.24668313 211.12282561 -218.04891649 207.03239655 -221 203 C-222.32 203.33 -223.64 203.66 -225 204 C-225.42116662 209.92696303 -224.21568929 213.51592317 -221.5625 218.625 C-219.50308147 222.68674427 -217.62128718 226.43222665 -217 231 C-222.75152124 230.5373382 -226.60960527 228.18789556 -231.375 225.1875 C-232.15504395 224.70410156 -232.93508789 224.22070312 -233.73876953 223.72265625 C-242.66320666 218.09869264 -251.03169655 211.73594045 -259.2890625 205.18359375 C-261.70414511 203.51288592 -263.12947868 203.49765877 -266 204 C-266.680625 204.680625 -267.36125 205.36125 -268.0625 206.0625 C-268.701875 206.701875 -269.34125 207.34125 -270 208 C-271.96166992 207.87695312 -271.96166992 207.87695312 -274 207 C-275.3527832 205.22851562 -275.3527832 205.22851562 -276.55078125 202.90625 C-276.99873047 202.04813721 -277.44667969 201.19002441 -277.90820312 200.3059082 C-278.37162109 199.3799585 -278.83503906 198.45400879 -279.3125 197.5 C-279.79525391 196.56051514 -280.27800781 195.62103027 -280.77539062 194.65307617 C-284.15915446 187.96517312 -287.18170671 181.17743981 -289.8059082 174.15625 C-291.16619827 170.59552943 -291.73172658 169.17884895 -295 167 C-299.69664815 167.41306026 -302.987107 169.61319579 -306.9140625 172.0390625 C-309 173 -309 173 -312 172 C-313.5839969 163.231554 -314.27779766 154.82037035 -314.1953125 145.91796875 C-314.1924826 144.73777664 -314.18965271 143.55758453 -314.18673706 142.34162903 C-314.17566622 138.62347671 -314.15058698 134.90557779 -314.125 131.1875 C-314.11495325 128.6451858 -314.10583039 126.10286778 -314.09765625 123.56054688 C-314.07577 117.37361349 -314.04242592 111.18682486 -314 105 C-319.44859479 103.86415384 -322.75822278 104.69659412 -327.75 106.9375 C-334.82566519 110 -334.82566519 110 -337 110 C-338.15272248 76.18680724 -326.31749283 28.01854914 -302.69921875 2.515625 C-302.13847656 2.01546875 -301.57773437 1.5153125 -301 1 C-301.68049401 5.94097827 -303.69761598 10.16545304 -305.6875 14.6875 C-312.42440974 30.39487463 -317.15472024 46.36393609 -321 63 C-321.19899902 63.84336914 -321.39799805 64.68673828 -321.60302734 65.55566406 C-323.75201733 74.73243211 -325.76829371 83.50303611 -325 93 C-321.24100762 93.21103115 -318.95165333 92.72937935 -315.625 91 C-311.57648716 89.10394649 -308.52740434 88.36616339 -304 89 C-302.0625 90 -302.0625 90 -301 92 C-300.81081991 97.47439879 -301.20139667 102.70602652 -301.9375 108.125 C-302.02451172 108.80175781 -302.11152344 109.47851562 -302.20117188 110.17578125 C-302.57770558 113.05975049 -302.98554491 115.92343038 -303.52514648 118.78173828 C-304.04850247 122.32871958 -304.12958929 125.71174192 -304.1328125 129.296875 C-304.13376923 129.97171936 -304.13472595 130.64656372 -304.13571167 131.34185791 C-304.13638797 132.75704035 -304.13457235 134.17222598 -304.13037109 135.58740234 C-304.12498123 137.75755694 -304.13035181 139.92750773 -304.13671875 142.09765625 C-304.13605853 143.47656296 -304.13477852 144.85546954 -304.1328125 146.234375 C-304.13112061 148.10947754 -304.13112061 148.10947754 -304.12939453 150.02246094 C-304.20596197 152.92804235 -304.20596197 152.92804235 -303 155 C-299.26512223 154.5020163 -297.18762365 154.12508244 -294 152 C-291.3125 151.875 -291.3125 151.875 -289 152 C-286.10494638 157.49190429 -283.94853839 162.82767088 -282.125 168.75 C-279.73051123 176.25666792 -276.82132869 183.08908641 -273 190 C-272.40574219 189.82339844 -271.81148438 189.64679688 -271.19921875 189.46484375 C-266.92613268 188.56769504 -264.15655146 188.31849072 -260.30859375 190.5859375 C-257.44149958 192.96474925 -254.72121401 195.45577552 -252 198 C-249.85669752 199.84102517 -247.67874925 201.63868799 -245.5 203.4375 C-244.5203125 204.26121094 -243.540625 205.08492187 -242.53125 205.93359375 C-238.89310014 209.01459917 -238.89310014 209.01459917 -234.4375 210.3125 C-233.633125 210.209375 -232.82875 210.10625 -232 210 C-229.11948999 205.67923499 -229.60987543 201.20265568 -229.52148438 196.16015625 C-229.31888513 190.45772862 -229.31888513 190.45772862 -227.78491211 188.25585938 C-225.33372299 186.53120928 -223.93306769 186.49804937 -221 187 C-219.41894531 188.59301758 -219.41894531 188.59301758 -218.078125 190.83203125 C-217.57345703 191.65654785 -217.06878906 192.48106445 -216.54882812 193.33056641 C-216.03771484 194.21147949 -215.52660156 195.09239258 -215 196 C-214.49404297 196.85126465 -213.98808594 197.7025293 -213.46679688 198.57958984 C-211.87831747 201.27307658 -210.31408646 203.97978808 -208.75 206.6875 C-203.59802286 215.49455629 -198.20012668 223.89933198 -192 232 C-191.24074219 233.00546875 -190.48148438 234.0109375 -189.69921875 235.046875 C-183.35154707 243.15961601 -176.38716511 250.60183979 -166 253 C-161.45618812 253.43801202 -156.9439052 253.55748066 -152.38378906 253.5559082 C-150.26701551 253.56244743 -148.15500438 253.61696649 -146.0390625 253.67382812 C-134.40974962 253.8171771 -124.67794329 250.45871941 -116.10546875 242.328125 C-102.49662663 227.28012889 -92.27557384 209.18695662 -82.48828125 191.51953125 C-81 189 -81 189 -79 187 C-76.5625 186.6875 -76.5625 186.6875 -74 187 C-72.36743164 188.27539062 -72.36743164 188.27539062 -71 190 C-70.67357827 192.88868787 -70.48820865 195.60719232 -70.4375 198.5 C-70.44021476 204.55673379 -70.44021476 204.55673379 -68 210 C-62.81057527 209.56495841 -59.68706922 207.71411711 -55.75 204.5 C-55.18861328 204.0572876 -54.62722656 203.6145752 -54.04882812 203.15844727 C-49.55665626 199.57325051 -45.33559834 195.72595113 -41.21875 191.71484375 C-37.51617151 188.85316777 -34.7509791 188.91382207 -30.1875 189.4375 C-29.135625 189.623125 -28.08375 189.80875 -27 190 C-22.07316338 181.32204913 -18.86124381 172.27572132 -15.71679688 162.83569336 C-15.39259766 161.86768799 -15.06839844 160.89968262 -14.734375 159.90234375 C-14.44788086 159.03085693 -14.16138672 158.15937012 -13.86621094 157.26147461 C-13 155 -13 155 -11 152 C-4.375 152.75 -4.375 152.75 -1 155 C0.32 155 1.64 155 3 155 C5.33326376 150.33347248 4.24219735 143.97365288 4.25 138.8125 C4.25233643 138.11825928 4.25467285 137.42401855 4.25708008 136.70874023 C4.27127693 125.51774632 3.40822049 114.69133616 1.65625 103.625 C0.11034151 93.40205674 0.11034151 93.40205674 2.234375 90.0546875 C5.63689107 88.02221109 9.29770044 89.1669826 13 90 C14.26628607 90.47988222 15.51897472 90.99828008 16.75 91.5625 C19.87430611 92.94440463 21.65129784 93.30442747 25 93 C25.27239761 86.12402406 24.26310498 79.80048759 22.9375 73.0625 C22.60250488 71.35537842 22.60250488 71.35537842 22.26074219 69.61376953 C17.8476941 47.85173852 11.8865461 25.30267576 1.73046875 5.44140625 C0 2 0 2 0 0 Z " fill="#8D4F1A" transform="translate(395,170)"/>
<path d="M0 0 C7.83357707 5.79142256 12.01136715 13.21925927 13.625 22.875 C15.35441929 43.42268304 15.05163336 68.19352098 1.42578125 85.05859375 C-4.96285717 91.50266504 -12.05574046 95.82279071 -21.1875 96.1875 C-30.82993861 95.89923577 -36.26669121 92.64183959 -43.30859375 86.12890625 C-47.15207411 81.93667909 -47.62335523 78.93749212 -47.60205078 73.27050781 C-47.60248886 72.28939781 -47.60248886 72.28939781 -47.60293579 71.28846741 C-47.60154676 69.13488317 -47.58600608 66.98164851 -47.5703125 64.828125 C-47.56658084 63.33168731 -47.56373459 61.83524717 -47.56173706 60.33880615 C-47.5541126 56.4063641 -47.53447438 52.47407053 -47.5123291 48.54168701 C-47.49184506 44.52650969 -47.48272988 40.5113083 -47.47265625 36.49609375 C-47.4512273 28.62232781 -47.41710576 20.74868239 -47.375 12.875 C-44.67406592 11.43580926 -41.97210609 9.99860382 -39.26953125 8.5625 C-38.51160278 8.15837891 -37.75367432 7.75425781 -36.97277832 7.33789062 C-10.9341824 -6.48567473 -10.9341824 -6.48567473 0 0 Z " fill="#B98D4F" transform="translate(298.375,241.125)"/>
<path d="M0 0 C1.28555469 0.65931702 2.57200868 1.31688361 3.859375 1.97265625 C13.10246646 6.72746646 13.10246646 6.72746646 15.5 9.125 C15.78761292 11.85525513 15.78761292 11.85525513 15.83813477 15.37548828 C15.86057755 16.69090607 15.88302032 18.00632385 15.90614319 19.36160278 C15.91916286 20.80616184 15.93088451 22.25073309 15.94140625 23.6953125 C15.95176061 24.78635599 15.95176061 24.78635599 15.96232414 25.89944077 C15.99819812 29.75360081 16.02171211 33.60761389 16.03540039 37.46191406 C16.05189999 41.43021847 16.11023695 45.39672531 16.17854404 49.36442757 C16.22350026 52.42554698 16.23690764 55.48624349 16.24201775 58.54766464 C16.24987983 60.00927635 16.26942935 61.47087661 16.30124092 62.93216324 C16.56224298 75.77544969 16.56224298 75.77544969 12.12670898 80.95458984 C5.32906185 87.40631458 -1.86211654 90.46948555 -11.25 90.75 C-17.22878885 90.48739743 -21.65705096 89.67031676 -26.5 86.125 C-27.551875 85.361875 -28.60375 84.59875 -29.6875 83.8125 C-35.24974888 78.49746219 -38.02745428 73.30527811 -40.75 66.25 C-41.13768555 65.26036255 -41.13768555 65.26036255 -41.53320312 64.25073242 C-44.90684475 55.07105357 -44.73817692 45.60367373 -44.79516602 35.91552734 C-44.80666207 34.56223068 -44.82707677 33.20897851 -44.85668945 31.85595703 C-45.11991395 19.75939443 -43.99150786 7.40641557 -35.5 -1.875 C-23.22755981 -10.85820509 -12.10764296 -6.41929987 0 0 Z " fill="#B98E4F" transform="translate(223.5,245.875)"/>
<path d="M0 0 C3.35218055 -0.00218399 6.70402975 -0.02039723 10.05615234 -0.03930664 C22.87802968 -0.07326122 35.4159463 0.44197487 48.12255859 2.18530273 C49.21197754 2.33136963 50.30139648 2.47743652 51.42382812 2.62792969 C71.63229682 5.54982161 93.24470774 10.63993161 111.37255859 20.39624023 C118.72611823 23.71190775 129.81568026 17.71065548 136.74755859 15.25561523 C143.8153256 13.09830263 150.72416212 12.87194413 158.06005859 12.81030273 C159.06786377 12.79644531 160.07566895 12.78258789 161.11401367 12.76831055 C170.00662505 12.82499414 170.00662505 12.82499414 174.12255859 16.18530273 C170.46420475 18.6242053 167.12134838 18.90918948 162.87255859 19.49780273 C149.28513972 21.60460072 137.521211 26.16045261 125.38818359 32.51342773 C119.17646074 35.69359207 113.71431895 36.26123602 107.04345703 34.26293945 C103.49921306 32.94746969 99.99783235 31.55111262 96.49755859 30.12280273 C93.90807495 29.09872688 91.31290267 28.08963368 88.71630859 27.08374023 C88.07071991 26.83284134 87.42513123 26.58194244 86.75997925 26.32344055 C32.8961349 5.54726466 -19.4194083 8.3952334 -72.87744141 29.18530273 C-75.27554329 30.28584163 -77.67139236 31.39130299 -80.06494141 32.50170898 C-87.10740067 35.53767561 -93.01932308 36.83512419 -100.42236328 34.32104492 C-103.05218376 33.1663165 -105.58200622 31.89024769 -108.12744141 30.56030273 C-122.41407882 23.57264957 -137.33788429 20.18754852 -152.87744141 17.18530273 C-149.55767611 13.63658811 -147.64426885 12.29761939 -142.68212891 11.98217773 C-128.06574425 11.80782722 -114.84259571 14.07815024 -101.14697266 19.19702148 C-93.88235471 21.39289764 -89.59291183 19.46049537 -83.12744141 16.18530273 C-81.44348829 15.35915963 -79.75856585 14.53498985 -78.07275391 13.71264648 C-77.21584961 13.29225098 -76.35894531 12.87185547 -75.47607422 12.4387207 C-71.35772304 10.45228563 -67.18510532 8.59406349 -63.00244141 6.74780273 C-62.26026367 6.41844727 -61.51808594 6.0890918 -60.75341797 5.74975586 C-59.38734859 5.1463928 -58.01915781 4.54779928 -56.6484375 3.95507812 C-55.1691129 3.31207972 -53.70137719 2.64250386 -52.23681641 1.96655273 C-49.35793733 1.01328152 -47.03044784 1.0264921 -44.00244141 1.12280273 C-39.46053643 1.21431479 -35.03509898 1.08513177 -30.51025391 0.70092773 C-20.34642284 -0.01022771 -10.18504665 -0.00074052 0 0 Z " fill="#A67347" transform="translate(233.87744140625,108.814697265625)"/>
<path d="M0 0 C4.26446103 0.30460436 6.10966686 3.10966686 9 6 C15.78485551 10.93060929 21.93483266 13.14725468 30.375 13.625 C31.62023437 13.69976562 32.86546875 13.77453125 34.1484375 13.8515625 C35.08945312 13.90054687 36.03046875 13.94953125 37 14 C37.41652329 22.12683214 36.03771991 29.85893499 34.60131836 37.82080078 C34.18755889 40.12467211 33.79130821 42.43109838 33.39648438 44.73828125 C33.13385824 46.22414355 32.87022063 47.7098275 32.60546875 49.1953125 C32.43183052 50.21433151 32.43183052 50.21433151 32.25468445 51.25393677 C31.3980691 55.90594344 30.19098832 59.83164226 28 64 C20.73036735 66.81082195 12.85000315 66.27382941 5.14355469 66.20581055 C3.00443557 66.18753789 0.86575171 66.18530167 -1.2734375 66.18554688 C-16.24255692 66.15270841 -16.24255692 66.15270841 -22 65 C-24.64734544 62.21989566 -25.53443663 59.71178656 -26.28125 55.9921875 C-26.48210205 55.01354736 -26.6829541 54.03490723 -26.88989258 53.02661133 C-27.19189575 51.46656372 -27.19189575 51.46656372 -27.5 49.875 C-27.71358154 48.80854248 -27.92716309 47.74208496 -28.1472168 46.64331055 C-29.4518532 40.04811457 -30.682993 33.43996621 -31.8125 26.8125 C-31.93625 26.08981934 -32.06 25.36713867 -32.1875 24.62255859 C-32.76932 21.04693247 -33.13367774 17.6233703 -33 14 C-31.53240234 13.85304688 -31.53240234 13.85304688 -30.03515625 13.703125 C-17.18438455 12.2373536 -9.23004082 9.23004082 0 0 Z " fill="#FDFEFE" transform="translate(243,334)"/>
<path d="M0 0 C4.26446103 0.30460436 6.10966686 3.10966686 9 6 C15.78485551 10.93060929 21.93483266 13.14725468 30.375 13.625 C31.62023437 13.69976562 32.86546875 13.77453125 34.1484375 13.8515625 C35.08945312 13.90054687 36.03046875 13.94953125 37 14 C37.11138159 19.45769811 36.91657981 24.61509359 36 30 C35.505 29.01 35.505 29.01 35 28 C33.14375 27.9690625 33.14375 27.9690625 31.25 27.9375 C25.6442205 27.51526981 21.85431141 24.45512217 17.60644531 21.06225586 C15.8355435 19.65077636 15.8355435 19.65077636 13 18 C10.35435975 18.32546211 10.35435975 18.32546211 8 19 C7.88406494 19.74685059 7.76812988 20.49370117 7.64868164 21.26318359 C7.12339923 24.6343364 6.59301539 28.00466692 6.0625 31.375 C5.78889648 33.1384375 5.78889648 33.1384375 5.50976562 34.9375 C5.33251953 36.05898438 5.15527344 37.18046875 4.97265625 38.3359375 C4.81031494 39.37282715 4.64797363 40.4097168 4.48071289 41.47802734 C4 44 4 44 3 46 C2.34 46 1.68 46 1 46 C-1.23443486 37.03246811 -2.8322916 28.16307654 -4 19 C-6.18698947 18.08887835 -6.18698947 18.08887835 -9 18 C-11.2925625 19.37964709 -13.23499195 20.72776504 -15.3125 22.375 C-20.22274596 26.04984118 -23.77300838 28.12209787 -30 28 C-30.33 28.99 -30.66 29.98 -31 31 C-31.33848652 29.10507994 -31.67056911 27.20901534 -32 25.3125 C-32.185625 24.25675781 -32.37125 23.20101563 -32.5625 22.11328125 C-32.95068074 19.35095938 -33.08259976 16.78257957 -33 14 C-31.53240234 13.85304688 -31.53240234 13.85304688 -30.03515625 13.703125 C-17.18438455 12.2373536 -9.23004082 9.23004082 0 0 Z " fill="#EAEEF0" transform="translate(243,334)"/>
<path d="M0 0 C0.71414063 0.19464844 1.42828125 0.38929688 2.1640625 0.58984375 C6.92642101 2.3824169 8.8242804 4.83690185 11.0625 9.375 C12.76815809 13.73710533 13.63744543 16.47294498 12 21 C11.81695312 21.7940625 11.63390625 22.588125 11.4453125 23.40625 C10.20233845 27.76306626 9.12022768 30.27328006 5.2421875 32.7890625 C0.12646118 35.03897653 -3.50005745 36.57141216 -9 35 C-9.825 34.81824219 -10.65 34.63648438 -11.5 34.44921875 C-15.75981905 33.15130513 -18.29148248 32.07589698 -20.79296875 28.27734375 C-24.02874908 20.96284872 -24.37633245 15.96349206 -21.5625 8.4375 C-19.34360398 3.68616831 -16.40978344 1.76503659 -11.65234375 -0.25390625 C-7.43566417 -1.44004145 -4.17748279 -1.19895264 0 0 Z " fill="#030202" transform="translate(348,192)"/>
<path d="M0 0 C4.54719528 3.21546738 6.21294509 7.54733294 7.57421875 12.8203125 C7.69921875 15.8828125 7.69921875 15.8828125 6.57421875 18.8203125 C6.30609375 19.614375 6.03796875 20.4084375 5.76171875 21.2265625 C3.58260835 26.6743385 1.41326026 29.4318329 -3.92578125 32.0078125 C-7.92686926 33.68804468 -10.25505666 34.00157785 -14.42578125 32.8203125 C-15.66328125 32.53027344 -15.66328125 32.53027344 -16.92578125 32.234375 C-21.00966672 30.94539865 -23.66960542 29.89576257 -26.18359375 26.3203125 C-28.95078153 20.50131191 -30.50672082 15.603601 -28.68359375 9.22265625 C-25.89022346 3.14466779 -23.10142596 0.35587029 -17.0234375 -2.4375 C-10.69448347 -4.24577258 -5.77482049 -2.7574177 0 0 Z " fill="#030201" transform="translate(156.42578125,194.1796875)"/>
<path d="M0 0 C0.66 0 1.32 0 2 0 C0.34109393 10.69072803 -4.18070378 21.9193749 -12.9453125 28.671875 C-21.19716987 34.0057752 -28.46491674 36.16219081 -38.3046875 34.64453125 C-45.6277642 32.7030038 -52.15156239 27.36412001 -56.27734375 21.04296875 C-57.17340562 18.50977763 -57.19553315 16.43025954 -57.125 13.75 C-57.09792969 12.41195313 -57.09792969 12.41195313 -57.0703125 11.046875 C-57.04710937 10.37140625 -57.02390625 9.6959375 -57 9 C-56.02417969 9.49371094 -55.04835937 9.98742187 -54.04296875 10.49609375 C-52.75786595 11.14333531 -51.47270675 11.79046488 -50.1875 12.4375 C-49.54490234 12.76298828 -48.90230469 13.08847656 -48.24023438 13.42382812 C-39.46389262 17.83473564 -30.26205656 18.43423682 -20.6875 15.875 C-12.55248851 13.00774185 -6.72233744 8.24522032 -1.41015625 1.5390625 C-0.94480469 1.03117187 -0.47945313 0.52328125 0 0 Z " fill="#AF7E3A" transform="translate(308,302)"/>
<path d="M0 0 C1.93478221 1.85739092 3.77252165 3.70218712 5.40234375 5.8359375 C10.81581892 12.74506718 17.7477623 16.2492541 26 19 C38.6046212 19.94225722 48.26346762 17.68050903 59 11 C59.53640999 15.63185769 59.97489742 20.02675402 57.86328125 24.30078125 C52.41043626 31.10033372 44.77921445 35.36602257 36.171875 36.5078125 C28.9154955 36.72463659 22.94769491 36.35405417 17 32 C15.948125 31.236875 14.89625 30.47375 13.8125 29.6875 C8.14633471 24.27316428 5.42330215 19.01091809 2.6875 11.8125 C2.42066406 11.11084717 2.15382812 10.40919434 1.87890625 9.6862793 C0.62119001 6.22631846 0 3.72550285 0 0 Z " fill="#AF7E3A" transform="translate(180,300)"/>
<path d="M0 0 C1.2375 0.09873413 1.2375 0.09873413 2.5 0.19946289 C24.24553924 1.9933928 24.24553924 1.9933928 46 1 C47.04671875 0.90203125 48.0934375 0.8040625 49.171875 0.703125 C51.4509047 0.48907249 53.72550317 0.2569744 56 0 C55.73719158 1.46810221 55.41237769 2.92518002 55.0625 4.375 C54.88847656 5.18710937 54.71445312 5.99921875 54.53515625 6.8359375 C52.47523436 9.73974597 50.3461843 10.10677853 46.93139648 10.70410156 C41.34445169 11.26805401 35.75237716 11.25531528 30.14355469 11.20581055 C28.00443557 11.18753789 25.86575171 11.18530167 23.7265625 11.18554688 C4.39081243 11.13793744 4.39081243 11.13793744 0.9375 8.3125 C-0.22684126 5.44045821 -0.06307424 3.07381793 0 0 Z " fill="#E9EDF0" transform="translate(218,389)"/>
<path d="M0 0 C3.63 0 7.26 0 11 0 C11 0.99 11 1.98 11 3 C9.02 3.33 7.04 3.66 5 4 C5.99 4.99 6.98 5.98 8 7 C6.125 10.875 6.125 10.875 5 12 C7.97 12.495 7.97 12.495 11 13 C11 13.99 11 14.98 11 16 C7.37 16 3.74 16 0 16 C0.79802815 12.8078874 1.74231289 10.01844907 3 7 C2.505 6.5875 2.01 6.175 1.5 5.75 C0 4 0 4 0 0 Z " fill="#CCCCCC" transform="translate(140,201)"/>
<path d="M0 0 C3.63 0 7.26 0 11 0 C11 0.99 11 1.98 11 3 C9.02 3.33 7.04 3.66 5 4 C5.99 4.99 6.98 5.98 8 7 C6.125 10.875 6.125 10.875 5 12 C7.97 12.495 7.97 12.495 11 13 C11 13.99 11 14.98 11 16 C7.37 16 3.74 16 0 16 C1 12 1 12 2.25 9.5 C2.4975 8.675 2.745 7.85 3 7 C1.67662714 4.84659471 1.67662714 4.84659471 0 3 C0 2.01 0 1.02 0 0 Z " fill="#D7D7D7" transform="translate(337,201)"/>
<path d="M0 0 C1.9375 0.75 1.9375 0.75 3.9375 2.75 C3.5625 5.875 3.5625 5.875 2.9375 8.75 C0.625 9.375 0.625 9.375 -2.0625 9.75 C-3.0525 9.09 -4.0425 8.43 -5.0625 7.75 C-5.4375 4.75 -5.4375 4.75 -5.0625 1.75 C-2.0625 -0.25 -2.0625 -0.25 0 0 Z " fill="#0E0B06" transform="translate(292.0625,286.25)"/>
<path d="M0 0 C2.375 0.6875 2.375 0.6875 3.375 1.6875 C3.5625 4.125 3.5625 4.125 3.375 6.6875 C1.375 8.6875 1.375 8.6875 -1.125 8.9375 C-3.625 8.6875 -3.625 8.6875 -5.625 6.6875 C-5.9375 4.1875 -5.9375 4.1875 -5.625 1.6875 C-2.625 -0.3125 -2.625 -0.3125 0 0 Z " fill="#0B0905" transform="translate(217.625,300.3125)"/>
<path d="M0 0 C2.625 0.375 2.625 0.375 5 1 C5.6875 3.8125 5.6875 3.8125 6 7 C4.8125 8.9375 4.8125 8.9375 3 10 C0.02602384 9.72963853 -0.85446026 9.14553974 -3 7 C-2.67028521 3.70285207 -2.3773161 2.3773161 0 0 Z " fill="#0C0905" transform="translate(197,286)"/>
<path d="M0 0 C2.5625 0.1875 2.5625 0.1875 4.5625 2.1875 C4.8125 4.6875 4.8125 4.6875 4.5625 7.1875 C2.5625 9.1875 2.5625 9.1875 0.0625 9.5 C-1.175 9.3453125 -1.175 9.3453125 -2.4375 9.1875 C-4.4375 6.1875 -4.4375 6.1875 -4.125 3.5625 C-3.16420807 0.24340062 -3.16420807 0.24340062 0 0 Z " fill="#0A0704" transform="translate(216.4375,272.8125)"/>
<path d="M0 0 C3.125 0.375 3.125 0.375 6 1 C6.625 3.875 6.625 3.875 7 7 C5 9 5 9 2.5 9.25 C0 9 0 9 -2 7 C-2.25 4.5 -2.25 4.5 -2 2 C-1.34 1.34 -0.68 0.68 0 0 Z " fill="#0A0804" transform="translate(271,300)"/>
<path d="M0 0 C2.5 0.25 2.5 0.25 4.5 2.25 C4.125 5.375 4.125 5.375 3.5 8.25 C0.625 8.875 0.625 8.875 -2.5 9.25 C-4.5 7.25 -4.5 7.25 -4.75 4.75 C-4.40058445 1.25584452 -3.49415548 0.34941555 0 0 Z " fill="#090704" transform="translate(273.5,272.75)"/>
<path d="M0 0 C0.33 0.66 0.66 1.32 1 2 C3.31 2 5.62 2 8 2 C8 2.99 8 3.98 8 5 C4.37 5 0.74 5 -3 5 C-2.67 3.68 -2.34 2.36 -2 1 C-1.34 0.67 -0.68 0.34 0 0 Z " fill="#E3E3E3" transform="translate(340,212)"/>
<path d="M0 0 C0.33 0.66 0.66 1.32 1 2 C3.64 2 6.28 2 9 2 C9 2.66 9 3.32 9 4 C5.37 4 1.74 4 -2 4 C-1.34 2.68 -0.68 1.36 0 0 Z " fill="#FFFFFF" transform="translate(142,213)"/>
</svg>
